<?xml version="1.0" encoding="UTF-8"?>
<svg version="1.1" xmlns="http://www.w3.org/2000/svg" width="204" height="192">
<path d="M0 0 C67.32 0 134.64 0 204 0 C204 63.36 204 126.72 204 192 C136.68 192 69.36 192 0 192 C0 128.64 0 65.28 0 0 Z " fill="#3E75C3" transform="translate(0,0)"/>
<path d="M0 0 C9.03880818 -1.0633892 17.30626837 3.10112854 24.375 8.5625 C29.00660196 10.39916974 31.71810743 9.44940485 36.46289062 8.28271484 C42.45002896 6.89894981 48.24190971 6.67719661 54.375 6.6875 C55.28967041 6.68266602 56.20434082 6.67783203 57.14672852 6.67285156 C62.30900856 6.72346675 66.92701872 7.34731917 71.93701172 8.55029297 C78.8886364 10.06566488 83.27900306 8.3209265 89.25 5.0625 C99.10880818 -0.14575724 99.10880818 -0.14575724 104.1875 -0.0625 C106.0746875 -0.0315625 106.0746875 -0.0315625 108 0 C111.45937551 8.50429813 112.14388293 16.96460018 110.25 26 C109.66906758 29.07489728 109.66906758 29.07489728 111.6875 31.375 C112.450625 32.24125 113.21375 33.1075 114 34 C120.00314543 45.5685615 121.02148096 59.80565737 117.87890625 72.5078125 C113.53485946 84.82559852 107.77565789 94.41447447 95.75 100.3125 C88.91347886 103.23674622 81.51617779 106 74 106 C74.35731201 106.49419434 74.71462402 106.98838867 75.08276367 107.49755859 C80.53445029 116.37452325 79.55395366 125.58480132 79.3125 135.625 C79.209375 141.68875 79.10625 147.7525 79 154 C62.5 154 46 154 29 154 C29 148.06 29 142.12 29 136 C28.01 136.33 27.02 136.66 26 137 C16.76035775 137.78396965 8.73133758 137.69307586 1 132 C-3.06027093 128.44495246 -5.0570832 125.1789849 -7.1875 120.25 C-10.04964359 113.98387065 -13.56577222 110.05082135 -19.05859375 105.76953125 C-19.69925781 105.18558594 -20.33992188 104.60164063 -21 104 C-21 103.01 -21 102.02 -21 101 C-15.51878478 99.79413265 -12.75969689 99.99932153 -8 103 C-4.17787921 105.45007743 -2.08698549 108.26589728 0.375 112 C3.37455284 116.34550604 5.73245591 119.67357133 11 121 C17.11840541 121.50734302 23.00513824 121.37057249 29 120 C29.0825 118.96875 29.165 117.9375 29.25 116.875 C30.10253301 112.47024613 31.34241489 110.51487063 34 107 C32.40063185 105.40063185 30.45716969 105.56895516 28.25 105.25 C17.60208979 103.3530381 8.49365735 99.95865757 1 92 C0.113125 91.0925 -0.77375 90.185 -1.6875 89.25 C-10.90856201 76.29066961 -12.57219133 61.46853101 -11 46 C-9.5174828 40.21759227 -7.12181383 35.43006237 -3.625 30.625 C-1.50307926 27.19728189 -2.25701836 25.88889759 -3 22 C-3.52311445 13.98226505 -3.03429469 7.45930778 0 0 Z " fill="#FDFDFE" transform="translate(48,38)"/>
<path d="M0 0 C23.76 0 47.52 0 72 0 C72 29.37 72 58.74 72 89 C71.67 89 71.34 89 71 89 C70.83564453 87.98969727 70.83564453 87.98969727 70.66796875 86.95898438 C68.27757381 72.70406818 65.40265581 60.45596576 58 48 C57.52949219 47.10925781 57.05898437 46.21851563 56.57421875 45.30078125 C47.88934935 29.39133023 34.25479738 18.25598305 19 9 C18.21882813 8.4946875 17.43765625 7.989375 16.6328125 7.46875 C13.42040663 5.67666601 10.16230594 4.51406841 6.6875 3.3125 C6.04232422 3.08755859 5.39714844 2.86261719 4.73242188 2.63085938 C3.15667113 2.08226467 1.57856946 1.54043041 0 1 C0 0.67 0 0.34 0 0 Z " fill="#FDFDFE" transform="translate(132,0)"/>
<path d="M0 0 C23.43 0 46.86 0 71 0 C67.95572872 2.02951419 65.15000453 3.1648384 61.75 4.5 C36.96594292 14.80855683 18.54987728 34.79611405 7.87890625 59.1328125 C3.8572969 69.01289085 2.2299397 79.46272812 1 90 C0.67 90 0.34 90 0 90 C0 60.3 0 30.6 0 0 Z " fill="#FDFDFE" transform="translate(0,0)"/>
<path d="M0 0 C0.33 0 0.66 0 1 0 C1 27.06 1 54.12 1 82 C-18.47 82 -37.94 82 -58 82 C-54.84741646 79.63556235 -51.99197863 77.86131811 -48.5625 76 C-23.89351885 61.667352 -9.27508581 38.05690845 -2 11 C-1.15668884 7.34313053 -0.42786765 3.72856091 0 0 Z " fill="#FCFDFE" transform="translate(203,110)"/>
<path d="M0 0 C0.33 0 0.66 0 1 0 C1.15855469 0.74121094 1.31710938 1.48242188 1.48046875 2.24609375 C2.27704146 5.84167335 3.1290433 9.42192136 4 13 C4.1556543 13.65806641 4.31130859 14.31613281 4.47167969 14.99414062 C10.51622941 39.96862751 25.61959204 60.75209614 47 75 C50.859155 77.30005638 54.86532035 79.24449356 59 81 C59 81.33 59 81.66 59 82 C39.53 82 20.06 82 0 82 C0 54.94 0 27.88 0 0 Z " fill="#FCFDFE" transform="translate(0,110)"/>
</svg>
