<?xml version="1.0" encoding="UTF-8"?>
<svg version="1.1" xmlns="http://www.w3.org/2000/svg" width="204" height="192">
<path d="M0 0 C67.32 0 134.64 0 204 0 C204 63.36 204 126.72 204 192 C136.68 192 69.36 192 0 192 C0 128.64 0 65.28 0 0 Z " fill="#FBFBFB" transform="translate(0,0)"/>
<path d="M0 0 C9.95065329 8.39389147 13.06702725 18.89166397 14.625 31.375 C14.70840837 33.93373505 14.74284258 36.49435285 14.73852539 39.05444336 C14.73867142 39.78698334 14.73881744 40.51952332 14.7389679 41.27426147 C14.73827686 43.67115343 14.73052276 46.06796554 14.72265625 48.46484375 C14.72078919 50.13635719 14.71936665 51.80787119 14.71836853 53.47938538 C14.71456603 57.86054009 14.70475529 62.24166121 14.69366455 66.62280273 C14.6834015 71.10074408 14.67886046 75.57869089 14.67382812 80.05664062 C14.66313083 88.82944416 14.64555257 97.60221402 14.625 106.375 C5.055 106.375 -4.515 106.375 -14.375 106.375 C-14.42398438 102.14816406 -14.47296875 97.92132813 -14.5234375 93.56640625 C-14.56804082 90.17530411 -14.61453266 86.78423944 -14.66229248 83.39318085 C-14.71203198 79.82506536 -14.75851991 76.25697827 -14.796875 72.6887207 C-14.84113755 68.58526779 -14.90069303 64.48215589 -14.9609375 60.37890625 C-14.97248871 59.11293106 -14.98403992 57.84695587 -14.99594116 56.5426178 C-15.18156941 43.85321063 -15.18156941 43.85321063 -20.25 32.4375 C-20.74242187 31.70660156 -21.23484375 30.97570312 -21.7421875 30.22265625 C-23.48341821 28.25231624 -24.96342773 27.371992 -27.375 26.375 C-27.375 25.715 -27.375 25.055 -27.375 24.375 C-37.73718724 23.34714989 -37.73718724 23.34714989 -47.0625 27.0625 C-48.85825439 28.68617864 -48.85825439 28.68617864 -50.375 30.375 C-51.15875 31.179375 -51.9425 31.98375 -52.75 32.8125 C-55.950106 37.858821 -56.6239941 43.16533675 -56.69384766 49.04467773 C-56.71371735 50.32547714 -56.73358704 51.60627655 -56.75405884 52.92588806 C-56.76593158 54.30345487 -56.77759465 55.68102351 -56.7890625 57.05859375 C-56.80779555 58.48349604 -56.82737052 59.90838749 -56.8477478 61.33326721 C-56.89884969 65.06331967 -56.93859199 68.793408 -56.97589111 72.52362061 C-57.02314715 77.0100726 -57.08465 81.49634962 -57.14373779 85.98265839 C-57.23168228 92.78003411 -57.30163745 99.57738086 -57.375 106.375 C-67.275 106.375 -77.175 106.375 -87.375 106.375 C-87.375 69.415 -87.375 32.455 -87.375 -5.625 C-77.475 -5.625 -67.575 -5.625 -57.375 -5.625 C-57.045 -0.675 -56.715 4.275 -56.375 9.375 C-55.364375 8.158125 -54.35375 6.94125 -53.3125 5.6875 C-40.16100239 -9.29354063 -16.54987847 -11.24624946 0 0 Z " fill="#000000" transform="translate(165.375,70.625)"/>
<path d="M0 0 C9.9 0 19.8 0 30 0 C30 36.96 30 73.92 30 112 C20.1 112 10.2 112 0 112 C0 75.04 0 38.08 0 0 Z " fill="#000000" transform="translate(26,65)"/>
<path d="M0 0 C4.36775158 3.14884416 7.96773395 6.77820184 9.6875 11.9375 C10.25474124 17.6644548 9.93131086 22.01585594 6.6875 26.9375 C3.17175218 31.13686546 -0.04367247 33.38276401 -5.3125 34.9375 C-11.63139044 35.18824962 -16.46261478 34.21001793 -21.3125 29.9375 C-25.83312176 23.95073064 -26.98523367 19.27641278 -26.3125 11.9375 C-24.66388987 6.73136276 -22.52173077 3.42808162 -18.3125 -0.0625 C-12.53627075 -2.01677028 -5.74166267 -1.84166538 0 0 Z " fill="#020202" transform="translate(49.3125,16.0625)"/>
</svg>
