<?xml version="1.0" encoding="UTF-8"?>
<svg version="1.1" xmlns="http://www.w3.org/2000/svg" width="193" height="183">
<path d="M0 0 C63.69 0 127.38 0 193 0 C193 60.39 193 120.78 193 183 C129.31 183 65.62 183 0 183 C0 122.61 0 62.22 0 0 Z " fill="#FDFEFE" transform="translate(0,0)"/>
<path d="M0 0 C0.86625 0.763125 1.7325 1.52625 2.625 2.3125 C5.01541871 4.35597105 5.01541871 4.35597105 8.6875 4 C14.40047694 2.95534136 19.82537807 0.58731096 25 -2 C23.43900511 4.93775507 18.8184277 10.1210482 13 14 C13.65226563 13.86722656 14.30453125 13.73445313 14.9765625 13.59765625 C19.6408287 12.65517178 24.29868454 11.74231297 29 11 C25.52111552 16.94309431 20.6902641 22.76991197 14 25 C14.04640625 25.95777344 14.0928125 26.91554688 14.140625 27.90234375 C14.95557333 52.29501759 5.91550271 73.78234247 -10.63671875 91.55859375 C-11.41660156 92.36425781 -12.19648438 93.16992188 -13 94 C-13.74894531 94.77472656 -14.49789062 95.54945313 -15.26953125 96.34765625 C-32.84428509 113.33949952 -55.80929984 117.53556284 -79.40625 117.28125 C-93.31078328 116.88578546 -107.29309707 112.61476028 -119 105 C-119 104.67 -119 104.34 -119 104 C-117.88882813 103.96261719 -116.77765625 103.92523438 -115.6328125 103.88671875 C-103.07857993 103.37510869 -86.49826972 101.49826972 -77 92 C-77.70125 91.76925781 -78.4025 91.53851563 -79.125 91.30078125 C-88.85282221 87.95684236 -96.86579369 84.38014163 -102 75 C-102.33 73.35 -102.66 71.7 -103 70 C-99.37 70 -95.74 70 -92 70 C-92 69.34 -92 68.68 -92 68 C-92.59167969 67.82984375 -93.18335937 67.6596875 -93.79296875 67.484375 C-102.94040006 64.67896377 -107.25205527 60.2049075 -112 52 C-113.96494197 47.53422279 -114.19441216 43.86030393 -114 39 C-113.113125 39.33 -112.22625 39.66 -111.3125 40 C-108.25922627 40.92174301 -106.13759724 41.08552224 -103 41 C-103.45890625 40.53851563 -103.9178125 40.07703125 -104.390625 39.6015625 C-112.2600975 31.23611484 -114.65271227 23.70648595 -114.33984375 12.23046875 C-113.91711336 8.21210053 -112.99302054 5.48778594 -111 2 C-107.8338189 3.38855824 -106.8015152 4.24314389 -104.5 7.0625 C-91.48515077 22.62864722 -70.15864361 30.4462527 -50.5 32.75 C-49.345 32.8325 -48.19 32.915 -47 33 C-47.04640625 32.09378906 -47.0928125 31.18757813 -47.140625 30.25390625 C-47.4743124 18.99195658 -45.62653352 12.08149096 -37.93359375 3.79296875 C-27.4398316 -5.9376107 -12.47204552 -7.1097841 0 0 Z " fill="#1DA1F2" transform="translate(142,35)"/>
<path d="M0 0 C5.61 0 11.22 0 17 0 C17 0.33 17 0.66 17 1 C14.03 1 11.06 1 8 1 C8 1.99 8 2.98 8 4 C11.63 4.66 15.26 5.32 19 6 C19 5.01 19 4.02 19 3 C21.97 3.495 21.97 3.495 25 4 C25 4.99 25 5.98 25 7 C26.15628906 6.96519531 26.15628906 6.96519531 27.3359375 6.9296875 C28.33882812 6.91164062 29.34171875 6.89359375 30.375 6.875 C31.37273438 6.85179687 32.37046875 6.82859375 33.3984375 6.8046875 C36 7 36 7 38 9 C37.01 9.33 36.02 9.66 35 10 C37.34938888 11.17469444 38.95073205 11.20034889 41.5703125 11.31640625 C42.91416016 11.37924805 42.91416016 11.37924805 44.28515625 11.44335938 C45.22230469 11.48267578 46.15945312 11.52199219 47.125 11.5625 C48.54232422 11.62727539 48.54232422 11.62727539 49.98828125 11.69335938 C52.32537092 11.79959072 54.6625683 11.90163176 57 12 C57 12.33 57 12.66 57 13 C36.57644417 13.66509576 17.71297388 12.52141184 0 1 C0 0.67 0 0.34 0 0 Z " fill="#269CE2" transform="translate(23,139)"/>
<path d="M0 0 C1.11826172 0.00322266 2.23652344 0.00644531 3.38867188 0.00976562 C4.55591797 0.01814453 5.72316406 0.02652344 6.92578125 0.03515625 C8.10462891 0.03966797 9.28347656 0.04417969 10.49804688 0.04882812 C13.41150914 0.06062352 16.32486988 0.07708355 19.23828125 0.09765625 C13.90594945 2.95426257 8.9708734 3.33777275 2.98828125 3.66015625 C2.24320313 3.70333984 1.498125 3.74652344 0.73046875 3.79101562 C-1.10006775 3.8966235 -2.93087051 3.99759826 -4.76171875 4.09765625 C2.46690851 7.54996819 9.57032623 10.75828014 17.23828125 13.09765625 C17.23828125 13.42765625 17.23828125 13.75765625 17.23828125 14.09765625 C13.93828125 13.76765625 10.63828125 13.43765625 7.23828125 13.09765625 C7.23828125 12.43765625 7.23828125 11.77765625 7.23828125 11.09765625 C6.54347656 10.98550781 5.84867188 10.87335938 5.1328125 10.7578125 C1.86795161 10.0131951 -0.9977208 8.85365537 -4.07421875 7.53515625 C-5.14285156 7.08011719 -6.21148438 6.62507812 -7.3125 6.15625 C-8.12074219 5.80691406 -8.92898437 5.45757812 -9.76171875 5.09765625 C-9.44921875 3.16015625 -9.44921875 3.16015625 -8.76171875 1.09765625 C-5.58384334 0.03836445 -3.33582932 -0.01693314 0 0 Z " fill="#E0F9FE" transform="translate(28.76171875,135.90234375)"/>
<path d="M0 0 C0.33 0 0.66 0 1 0 C1 3 1 6 1 9 C2.62626404 10.38232443 4.2925002 11.71937515 6 13 C5.34 14.32 4.68 15.64 4 17 C3.01 16.67 2.02 16.34 1 16 C1.66 15.34 2.32 14.68 3 14 C1.77023438 14.34224609 1.77023438 14.34224609 0.515625 14.69140625 C-0.56203125 14.97886719 -1.6396875 15.26632813 -2.75 15.5625 C-3.81734375 15.85253906 -4.8846875 16.14257812 -5.984375 16.44140625 C-8.84335927 16.97098494 -10.31597383 16.98370862 -13 16 C-12.39671875 15.5153125 -11.7934375 15.030625 -11.171875 14.53125 C-5.85858744 10.0749443 -2.63825197 6.42357001 0 0 Z " fill="#D4F4FD" transform="translate(167,33)"/>
<path d="M0 0 C0.93423645 3.01031744 1.04449911 3.86650268 0 7 C-0.66 7 -1.32 7 -2 7 C-1.98839844 8.21558594 -1.97679688 9.43117188 -1.96484375 10.68359375 C-1.95546722 12.26822764 -1.94636687 13.85286318 -1.9375 15.4375 C-1.92912109 16.23994141 -1.92074219 17.04238281 -1.91210938 17.86914062 C-1.9034857 19.91295221 -1.9477185 21.95683902 -2 24 C-3.73962949 25.73962949 -6.07281723 25.17243833 -8.4375 25.1875 C-14.16657129 25.15319418 -19.45015721 24.37518228 -25 23 C-25.33 22.01 -25.66 21.02 -26 20 C-24.51306641 20.21462891 -24.51306641 20.21462891 -22.99609375 20.43359375 C-19.0214573 21.00139896 -15.04268281 21.53519413 -11.0625 22.0625 C-10.37865234 22.15337891 -9.69480469 22.24425781 -8.99023438 22.33789062 C-7.32686331 22.55889797 -5.66343745 22.77949285 -4 23 C-4.04640625 22.09378906 -4.0928125 21.18757813 -4.140625 20.25390625 C-4.37004078 12.51112365 -3.98721579 6.72842665 0 0 Z " fill="#3799D5" transform="translate(99,45)"/>
<path d="M0 0 C-3.79859562 5.22306897 -8.75506609 10.91835536 -15 13 C-15 17.62 -15 22.24 -15 27 C-15.33 27 -15.66 27 -16 27 C-16.05397335 24.5622037 -16.09365616 22.12560315 -16.125 19.6875 C-16.15013672 18.65206055 -16.15013672 18.65206055 -16.17578125 17.59570312 C-16.21217794 13.82864604 -16.14378864 12.21568296 -14 9 C-11.375 8.3125 -11.375 8.3125 -9 8 C-9 6.68 -9 5.36 -9 4 C-9.99 4.66 -10.98 5.32 -12 6 C-15.6875 5.625 -15.6875 5.625 -19 5 C-16.29436762 2.29436762 -13.72856809 1.86048851 -10.0625 0.8125 C-8.81597656 0.44769531 -7.56945312 0.08289062 -6.28515625 -0.29296875 C-3 -1 -3 -1 0 0 Z " fill="#3598D6" transform="translate(171,47)"/>
<path d="M0 0 C3.36720387 1.39332574 4.9859524 2.9789286 7 6 C6.67 6.66 6.34 7.32 6 8 C5.01 7.34 4.02 6.68 3 6 C3 5.34 3 4.68 3 4 C-0.19231727 5.64093341 -0.19231727 5.64093341 -0.58203125 8.35546875 C-1.04811665 14.08278937 -1.04098022 18.5215794 1 24 C1.28875 25.051875 1.5775 26.10375 1.875 27.1875 C3.12013043 30.30032608 4.58039284 31.73161829 7 34 C8.25 36.25 8.25 36.25 9 38 C5.4801418 36.56767675 3.93206376 34.91637039 1.875 31.75 C1.37742187 31.00234375 0.87984375 30.2546875 0.3671875 29.484375 C-3.75480332 21.99412882 -4.5914751 12.80474444 -2.32421875 4.53515625 C-1.5 2.625 -1.5 2.625 0 0 Z " fill="#3095CC" transform="translate(31,37)"/>
<path d="M0 0 C0.27070313 0.55816406 0.54140625 1.11632813 0.8203125 1.69140625 C3.95210549 7.82017995 7.48387613 13.78908784 12 19 C7.43711531 19.21222719 5.44992574 18.77997029 1 17 C1.33 20.63 1.66 24.26 2 28 C1.34 28 0.68 28 0 28 C-0.8723412 25.00519083 -1.10829766 22.36424089 -1.0625 19.25 C-1.05347656 18.45078125 -1.04445313 17.6515625 -1.03515625 16.828125 C-1.02355469 16.22484375 -1.01195313 15.6215625 -1 15 C-0.01 15 0.98 15 2 15 C2 12.36 2 9.72 2 7 C1.34 7 0.68 7 0 7 C0 4.69 0 2.38 0 0 Z " fill="#CDF2FB" transform="translate(28,58)"/>
<path d="M0 0 C2.97 0 5.94 0 9 0 C9 0.66 9 1.32 9 2 C7.02 2 5.04 2 3 2 C3 3.32 3 4.64 3 6 C3.556875 6.226875 4.11375 6.45375 4.6875 6.6875 C7 8 7 8 9.5 10.625 C11.90861986 13.45916631 11.90861986 13.45916631 16 13 C16.99 14.485 16.99 14.485 18 16 C18.99 16.33 19.98 16.66 21 17 C21 17.66 21 18.32 21 19 C22.65 19 24.3 19 26 19 C26 19.33 26 19.66 26 20 C18.89218366 20.94770885 13.71102889 18.1032319 8 14 C3.75889094 9.75889094 0.86721172 6.01760328 0 0 Z " fill="#3E98CD" transform="translate(39,105)"/>
<path d="M0 0 C0.33 0 0.66 0 1 0 C1.08165496 2.20770805 1.13948488 4.41630425 1.1875 6.625 C1.22230469 7.85476562 1.25710937 9.08453125 1.29296875 10.3515625 C0.9722379 14.34573074 -0.02351239 16.55046974 -2 20 C-2.90878016 21.86875921 -3.80511313 23.7436346 -4.6875 25.625 C-5.12449219 26.54539062 -5.56148437 27.46578125 -6.01171875 28.4140625 C-7.23799509 31.16134614 -7.23799509 31.16134614 -7 35 C-7.99 35 -8.98 35 -10 35 C-10.33 35.66 -10.66 36.32 -11 37 C-11.66 36.67 -12.32 36.34 -13 36 C-12.46890625 35.01902344 -11.9378125 34.03804687 -11.390625 33.02734375 C-5.6884195 22.23075471 -2.32845273 12.00396503 0 0 Z " fill="#D5F5FE" transform="translate(155,76)"/>
<path d="M0 0 C0.40089844 0.38671875 0.80179688 0.7734375 1.21484375 1.171875 C5.75016436 5.32668119 10.27749121 7.79404423 16 10 C16 10.66 16 11.32 16 12 C12.37 12 8.74 12 5 12 C5.66 14.31 6.32 16.62 7 19 C6.01 18.67 5.02 18.34 4 18 C3.0234375 11.9453125 3.0234375 11.9453125 3 10 C3.66 9.34 4.32 8.68 5 8 C4.360625 7.608125 3.72125 7.21625 3.0625 6.8125 C0.56221181 4.61527704 0.35049575 3.24208567 0 0 Z " fill="#DAF8FE" transform="translate(34,93)"/>
<path d="M0 0 C5.94 1.485 5.94 1.485 12 3 C8.46073835 6.53926165 6.23907804 8.12693501 1.875 10.25 C0.82054687 10.77078125 -0.23390625 11.2915625 -1.3203125 11.828125 C-4 13 -4 13 -6 13 C-6 12.34 -6 11.68 -6 11 C-3.09399739 9.74335022 -1.20395416 9 2 9 C1.34 6.03 0.68 3.06 0 0 Z " fill="#D3F8FE" transform="translate(54,123)"/>
<path d="M0 0 C5.45819398 3.54782609 5.45819398 3.54782609 7.58203125 5.3203125 C14.52229693 11.05425661 22.84669071 14.34954107 31 18 C26.21587842 19.59470719 22.51070581 18.01014004 18 16 C14.67664678 13.78177144 11.59356612 11.44951529 8.46875 8.9609375 C6.17816651 7.00319901 6.17816651 7.00319901 4 6 C4 5.34 4 4.68 4 4 C2.68 3.34 1.36 2.68 0 2 C0 1.34 0 0.68 0 0 Z " fill="#3598D5" transform="translate(39,45)"/>
<path d="M0 0 C0.33 1.32 0.66 2.64 1 4 C2.32 4.33 3.64 4.66 5 5 C1.23342553 6.40151608 -1.96543268 7.5452118 -6 7 C-7.8125 5.6875 -7.8125 5.6875 -9 4 C-9 3.01 -9 2.02 -9 1 C-5.64919071 -1.10976881 -3.77897651 -1.0497157 0 0 Z " fill="#E7F9FB" transform="translate(153,33)"/>
<path d="M0 0 C0 0.66 0 1.32 0 2 C0.66 2.66 1.32 3.32 2 4 C0.77023438 3.98839844 -0.45953125 3.97679687 -1.7265625 3.96484375 C-3.35937347 3.95545978 -4.9921861 3.94636023 -6.625 3.9375 C-7.43324219 3.92912109 -8.24148437 3.92074219 -9.07421875 3.91210938 C-13.50341918 3.8941045 -17.63883424 4.10377338 -22 5 C-22 4.34 -22 3.68 -22 3 C-14.51411991 -0.0745579 -8.13580527 -1.83055619 0 0 Z " fill="#E5FDFE" transform="translate(134,28)"/>
<path d="M0 0 C0.33 0 0.66 0 1 0 C1 3.96 1 7.92 1 12 C-6.74152536 12.39363688 -13.52058632 10.94210433 -21 9 C-21 8.67 -21 8.34 -21 8 C-19.37509046 7.97301811 -17.75005367 7.95361243 -16.125 7.9375 C-15.22007813 7.92589844 -14.31515625 7.91429687 -13.3828125 7.90234375 C-11 8 -11 8 -9 9 C-6.6670134 9.04022391 -4.33293334 9.04320247 -2 9 C-1.34 6.03 -0.68 3.06 0 0 Z " fill="#CBF5FD" transform="translate(94,56)"/>
<path d="M0 0 C0.33 0.99 0.66 1.98 1 3 C0.01 3.495 0.01 3.495 -1 4 C-1 4.66 -1 5.32 -1 6 C-2.37285156 6.41572266 -2.37285156 6.41572266 -3.7734375 6.83984375 C-5.55621094 7.38318359 -5.55621094 7.38318359 -7.375 7.9375 C-8.55835938 8.29714844 -9.74171875 8.65679687 -10.9609375 9.02734375 C-13.87926818 9.87576274 -13.87926818 9.87576274 -16 11 C-18.6723621 11.13415472 -21.32250488 11.04318541 -24 11 C-20.66245532 9.22972082 -17.22943177 7.93189374 -13.6875 6.625 C-8.80821645 4.77328991 -4.41403481 2.77160325 0 0 Z " fill="#2F98CF" transform="translate(64,128)"/>
<path d="M0 0 C3.96 0 7.92 0 12 0 C6.29481957 5.31171971 -1.33709726 8.73673161 -9 10 C-9 9.34 -9 8.68 -9 8 C-6.03 7.01 -3.06 6.02 0 5 C0 3.35 0 1.7 0 0 Z " fill="#3097D5" transform="translate(105,138)"/>
<path d="M0 0 C0.9590625 0.3403125 0.9590625 0.3403125 1.9375 0.6875 C2.9275 0.6875 3.9175 0.6875 4.9375 0.6875 C5.9275 1.0175 6.9175 1.3475 7.9375 1.6875 C7.10605469 1.94144531 6.27460937 2.19539063 5.41796875 2.45703125 C4.33128906 2.80121094 3.24460937 3.14539062 2.125 3.5 C1.04605469 3.83644531 -0.03289062 4.17289063 -1.14453125 4.51953125 C-3.94605475 5.64089072 -5.08781094 6.52015835 -7.0625 8.6875 C-9.75 9.375 -9.75 9.375 -12.0625 9.6875 C-3.64611019 -0.55244094 -3.64611019 -0.55244094 0 0 Z " fill="#1A9FED" transform="translate(112.0625,34.3125)"/>
<path d="M0 0 C0.99 0.99 1.98 1.98 3 3 C2.34 3 1.68 3 1 3 C-1.13391403 9.25948114 -1.58955515 15.42208127 -2 22 C-2.33 22 -2.66 22 -3 22 C-3.08103404 19.08277452 -3.14051081 16.16780484 -3.1875 13.25 C-3.21263672 12.425 -3.23777344 11.6 -3.26367188 10.75 C-3.33834499 4.57702246 -3.33834499 4.57702246 -1.48828125 1.421875 C-0.99714844 0.95265625 -0.50601562 0.4834375 0 0 Z " fill="#D6F6FD" transform="translate(30,34)"/>
<path d="M0 0 C0.33 0.66 0.66 1.32 1 2 C0.22265625 3.7265625 0.22265625 3.7265625 -0.9375 5.625 C-1.618125 6.73875 -2.29875 7.8525 -3 9 C-3.33 7.68 -3.66 6.36 -4 5 C-4.58007812 5.2165625 -5.16015625 5.433125 -5.7578125 5.65625 C-10.32553887 7.28435049 -14.0780464 8.37861182 -19 8 C-19 7.67 -19 7.34 -19 7 C-18.04738281 6.74605469 -17.09476563 6.49210937 -16.11328125 6.23046875 C-14.85902344 5.88628906 -13.60476562 5.54210938 -12.3125 5.1875 C-11.07113281 4.85105469 -9.82976562 4.51460937 -8.55078125 4.16796875 C-5.3185493 3.10478134 -2.81646223 1.87943655 0 0 Z " fill="#3697CC" transform="translate(166,33)"/>
<path d="M0 0 C3.36720387 1.39332574 4.9859524 2.9789286 7 6 C6.67 6.66 6.34 7.32 6 8 C5.01 7.34 4.02 6.68 3 6 C3 5.34 3 4.68 3 4 C-0.22404978 5.66954819 -0.22404978 5.66954819 -0.6875 8.625 C-0.790625 9.40875 -0.89375 10.1925 -1 11 C-1.66 11 -2.32 11 -3 11 C-2.53199289 6.94393835 -2.12046792 3.53411321 0 0 Z " fill="#3F9CD1" transform="translate(31,37)"/>
<path d="M0 0 C0.99 0.495 0.99 0.495 2 1 C2 2.32 2 3.64 2 5 C3.32 5 4.64 5 6 5 C5.01 7.97 4.02 10.94 3 14 C2.67 14 2.34 14 2 14 C0.4087311 9.126739 -0.21192221 5.19209404 0 0 Z " fill="#2A9CE2" transform="translate(144,91)"/>
<path d="M0 0 C1 2 1 2 0.4375 4.3125 C-1.47539467 7.88878134 -3.78248866 9.55189355 -7 12 C-7.66 11.67 -8.32 11.34 -9 11 C-8.01 10.67 -7.02 10.34 -6 10 C-6 9.01 -6 8.02 -6 7 C-5.01 6.67 -4.02 6.34 -3 6 C-3 5.34 -3 4.68 -3 4 C-4.98 4 -6.96 4 -9 4 C-6.01353231 2.00902154 -3.40312738 1.05875074 0 0 Z " fill="#1DA3E9" transform="translate(162,37)"/>
<path d="M0 0 C-1 2 -1 2 -3.625 3.1875 C-7.44504337 4.10714007 -10.17547603 3.76490479 -14 3 C-11.87033995 0.87033995 -10.95931796 0.52375338 -8.125 -0.1875 C-7.44695312 -0.36667969 -6.76890625 -0.54585937 -6.0703125 -0.73046875 C-3.77181444 -1.02970718 -2.19449036 -0.69377386 0 0 Z " fill="#259ADF" transform="translate(166,49)"/>
<path d="M0 0 C1.65 0 3.3 0 5 0 C5.33 1.32 5.66 2.64 6 4 C7.32 4 8.64 4 10 4 C10 4.66 10 5.32 10 6 C11.32 6 12.64 6 14 6 C14.33 6.99 14.66 7.98 15 9 C9.26800429 7.53025751 4.66416601 4.55513098 0 1 C0 0.67 0 0.34 0 0 Z " fill="#C9F4FE" transform="translate(48,51)"/>
<path d="M0 0 C0.33 1.32 0.66 2.64 1 4 C-0.11375 4.86625 -0.11375 4.86625 -1.25 5.75 C-3.66087643 7.72253526 -5.84042701 9.76044282 -8 12 C-8.66 11.67 -9.32 11.34 -10 11 C-9.52949219 10.54109375 -9.05898437 10.0821875 -8.57421875 9.609375 C-3.96631602 5.08450705 -3.96631602 5.08450705 0 0 Z " fill="#D1F4FC" transform="translate(138,118)"/>
<path d="M0 0 C3.3 0 6.6 0 10 0 C4.8393283 2.58033585 1.50278693 3.12503029 -4.25 3.0625 C-5.32765625 3.05347656 -6.4053125 3.04445312 -7.515625 3.03515625 C-8.33546875 3.02355469 -9.1553125 3.01195312 -10 3 C-10 2.67 -10 2.34 -10 2 C-6.7 2 -3.4 2 0 2 C0 1.34 0 0.68 0 0 Z " fill="#BBEDFA" transform="translate(38,136)"/>
<path d="M0 0 C0.66 0 1.32 0 2 0 C1.67 1.32 1.34 2.64 1 4 C0.34 4 -0.32 4 -1 4 C-1 6.31 -1 8.62 -1 11 C-2.32 10.67 -3.64 10.34 -5 10 C-4.35699811 8.51960029 -3.71051501 7.04071218 -3.0625 5.5625 C-2.70285156 4.73878906 -2.34320313 3.91507812 -1.97265625 3.06640625 C-1 1 -1 1 0 0 Z " fill="#EBFDFE" transform="translate(142,113)"/>
<path d="M0 0 C0 0.66 0 1.32 0 2 C-0.556875 2.20625 -1.11375 2.4125 -1.6875 2.625 C-4.90882715 4.54038371 -6.65432575 7.08375634 -9 10 C-9.33 10 -9.66 10 -10 10 C-10.3125 7.75 -10.3125 7.75 -10 5 C-7.00129467 2.08234076 -4.33476481 0 0 0 Z " fill="#18A4FB" transform="translate(113,38)"/>
<path d="M0 0 C0.66 0.33 1.32 0.66 2 1 C0.68 5.95 -0.64 10.9 -2 16 C-2.33 16 -2.66 16 -3 16 C-3.33266291 9.79029227 -2.45029331 5.71735105 0 0 Z " fill="#3B98D3" transform="translate(153,80)"/>
<path d="M0 0 C2.97 0.99 5.94 1.98 9 3 C9 3.66 9 4.32 9 5 C3.5 5.36666667 3.5 5.36666667 1.125 3.625 C0 2 0 2 0 0 Z " fill="#E8FAFE" transform="translate(54,123)"/>
<path d="M0 0 C0.33 0 0.66 0 1 0 C1 4.29 1 8.58 1 13 C0.01 13.33 -0.98 13.66 -2 14 C-1.03644647 4.58997722 -1.03644647 4.58997722 0 0 Z " fill="#CAF5FD" transform="translate(155,76)"/>
<path d="M0 0 C2.31 0.33 4.62 0.66 7 1 C6.34 2.32 5.68 3.64 5 5 C3.68 5 2.36 5 1 5 C0.67 3.35 0.34 1.7 0 0 Z " fill="#19A4FC" transform="translate(72,68)"/>
<path d="M0 0 C0.99 0 1.98 0 3 0 C3 0.99 3 1.98 3 3 C2.34 3 1.68 3 1 3 C1 3.66 1 4.32 1 5 C0.34 5 -0.32 5 -1 5 C-1 5.66 -1 6.32 -1 7 C-1.99 7 -2.98 7 -4 7 C-3.67 5.68 -3.34 4.36 -3 3 C-2.34 3 -1.68 3 -1 3 C-0.67 2.01 -0.34 1.02 0 0 Z " fill="#259EE9" transform="translate(109,41)"/>
<path d="M0 0 C0 2.31 0 4.62 0 7 C-2.475 6.01 -2.475 6.01 -5 5 C-5 3.68 -5 2.36 -5 1 C-1.125 0 -1.125 0 0 0 Z " fill="#F8FDEF" transform="translate(44,35)"/>
<path d="M0 0 C4.99275057 1.27721526 7.57611908 3.17330957 11 7 C7.31985875 6.29228053 4.23833582 4.87103847 1 3 C0.67 2.01 0.34 1.02 0 0 Z " fill="#3299D3" transform="translate(136,33)"/>
<path d="M0 0 C1.9375 0.25 1.9375 0.25 4 1 C4.66 1.99 5.32 2.98 6 4 C0.72 3.67 -4.56 3.34 -10 3 C-10 2.67 -10 2.34 -10 2 C-9.04287109 1.90912109 -9.04287109 1.90912109 -8.06640625 1.81640625 C-6.82697266 1.69072266 -6.82697266 1.69072266 -5.5625 1.5625 C-4.73878906 1.48128906 -3.91507812 1.40007813 -3.06640625 1.31640625 C-1.01337975 1.21069185 -1.01337975 1.21069185 0 0 Z " fill="#C7F1FD" transform="translate(130,28)"/>
<path d="M0 0 C5.61 0 11.22 0 17 0 C17 0.33 17 0.66 17 1 C13.37 1 9.74 1 6 1 C6 1.66 6 2.32 6 3 C3.5625 2.625 3.5625 2.625 1 2 C0.67 1.34 0.34 0.68 0 0 Z " fill="#4093C2" transform="translate(23,139)"/>
<path d="M0 0 C4.875 3.625 4.875 3.625 6 7 C5.01 7.33 4.02 7.66 3 8 C0.9375 5.6875 0.9375 5.6875 -1 3 C-0.67 2.01 -0.34 1.02 0 0 Z " fill="#DAF6FD" transform="translate(41,112)"/>
<path d="M0 0 C0.8971875 0.309375 0.8971875 0.309375 1.8125 0.625 C1.28140625 0.93953125 0.7503125 1.2540625 0.203125 1.578125 C-3.70291152 3.94455588 -7.12354926 6.17805542 -10.1875 9.625 C-10.8475 9.295 -11.5075 8.965 -12.1875 8.625 C-11.08652432 7.49687697 -9.98158444 6.37262189 -8.875 5.25 C-8.26011719 4.62351562 -7.64523438 3.99703125 -7.01171875 3.3515625 C-2.93837566 -0.50372154 -2.93837566 -0.50372154 0 0 Z " fill="#3C9BD3" transform="translate(112.1875,34.375)"/>
<path d="M0 0 C0 0.66 0 1.32 0 2 C1.32 1.67 2.64 1.34 4 1 C1.94766315 3.2477975 0.99332739 4.0022242 -2 5 C-4.1875 4.5625 -4.1875 4.5625 -6 4 C-6 3.34 -6 2.68 -6 2 C-2.25 0 -2.25 0 0 0 Z " fill="#E3F5FB" transform="translate(162,32)"/>
<path d="M0 0 C0.33 0.99 0.66 1.98 1 3 C0.01 3.495 0.01 3.495 -1 4 C-1 4.66 -1 5.32 -1 6 C-3.31 6.33 -5.62 6.66 -8 7 C-5.61042731 3.75700849 -3.7952131 1.49097658 0 0 Z " fill="#2A9EDD" transform="translate(64,128)"/>
<path d="M0 0 C0.99 0.66 1.98 1.32 3 2 C-0.465 4.97 -0.465 4.97 -4 8 C-4 6.02 -4 4.04 -4 2 C-3.01 2.33 -2.02 2.66 -1 3 C-0.67 2.01 -0.34 1.02 0 0 Z " fill="#2C9AE1" transform="translate(127,126)"/>
<path d="M0 0 C0.66 0 1.32 0 2 0 C2 0.66 2 1.32 2 2 C4.97 2.495 4.97 2.495 8 3 C7.34 4.32 6.68 5.64 6 7 C5.34 7 4.68 7 4 7 C4 6.34 4 5.68 4 5 C2.68 4.34 1.36 3.68 0 3 C0 2.01 0 1.02 0 0 Z " fill="#18A9EA" transform="translate(32,41)"/>
<path d="M0 0 C0.66 0 1.32 0 2 0 C2.66 0.99 3.32 1.98 4 3 C4.99 3.33 5.98 3.66 7 4 C7 4.66 7 5.32 7 6 C8.65 6 10.3 6 12 6 C12 6.33 12 6.66 12 7 C7.50003317 7.44117322 5.65388883 7.52867608 2.0625 4.625 C0 2 0 2 0 0 Z " fill="#289FDA" transform="translate(53,118)"/>
<path d="M0 0 C0 0.66 0 1.32 0 2 C-3.63 2 -7.26 2 -11 2 C-11.33 2.66 -11.66 3.32 -12 4 C-12 3.01 -12 2.02 -12 1 C-7.58774263 -0.47075246 -4.51718381 -1.36884358 0 0 Z " fill="#C0F4FD" transform="translate(50,103)"/>
<path d="M0 0 C2.31 0.66 4.62 1.32 7 2 C7 2.99 7 3.98 7 5 C4.625 4.75 4.625 4.75 2 4 C0.6875 1.9375 0.6875 1.9375 0 0 Z " fill="#FCFBEE" transform="translate(32,98)"/>
<path d="M0 0 C2.02054804 1.64169528 4.02043058 3.30911778 6 5 C6 5.33 6 5.66 6 6 C3.125 6.125 3.125 6.125 0 6 C-0.66 5.34 -1.32 4.68 -2 4 C-1.34 3.67 -0.68 3.34 0 3 C0 2.01 0 1.02 0 0 Z " fill="#C0F3FE" transform="translate(34,71)"/>
<path d="M0 0 C0.33 0.99 0.66 1.98 1 3 C0.01 4.485 0.01 4.485 -1 6 C-1.45139459 8.0492094 -1.45139459 8.0492094 -1.625 10.1875 C-1.74875 11.445625 -1.8725 12.70375 -2 14 C-2.33 14 -2.66 14 -3 14 C-3.08082094 12.04233719 -3.13910778 10.08373272 -3.1875 8.125 C-3.22230469 7.03445312 -3.25710937 5.94390625 -3.29296875 4.8203125 C-3.19628906 3.88960937 -3.09960938 2.95890625 -3 2 C-2.01 1.34 -1.02 0.68 0 0 Z " fill="#C4EEFE" transform="translate(159,58)"/>
<path d="M0 0 C1.21236328 0.04060547 1.21236328 0.04060547 2.44921875 0.08203125 C3.06410156 0.11683594 3.67898437 0.15164062 4.3125 0.1875 C1.81744038 2.68255962 0.63921112 2.54698376 -2.8125 2.8125 C-3.72257812 2.88726562 -4.63265625 2.96203125 -5.5703125 3.0390625 C-6.61832031 3.11253906 -6.61832031 3.11253906 -7.6875 3.1875 C-5.26849268 0.20484049 -3.789448 -0.16475861 0 0 Z " fill="#2F98CF" transform="translate(89.6875,147.8125)"/>
<path d="M0 0 C0.33 0 0.66 0 1 0 C1 2.64 1 5.28 1 8 C0.01 8 -0.98 8 -2 8 C-2.125 5.125 -2.125 5.125 -2 2 C-1.34 1.34 -0.68 0.68 0 0 Z " fill="#11A6F9" transform="translate(148,88)"/>
<path d="M0 0 C0.33 0 0.66 0 1 0 C1 2.64 1 5.28 1 8 C0.01 7.67 -0.98 7.34 -2 7 C-2.125 4.625 -2.125 4.625 -2 2 C-1.34 1.34 -0.68 0.68 0 0 Z " fill="#EDFEFC" transform="translate(27,56)"/>
<path d="M0 0 C0.33 0.99 0.66 1.98 1 3 C-0.125 5.125 -0.125 5.125 -2 7 C-4.6875 7.75 -4.6875 7.75 -7 8 C-5.38405168 5.95880212 -3.7143618 3.95927063 -2 2 C-1.34 2 -0.68 2 0 2 C0 1.34 0 0.68 0 0 Z " fill="#C9EFFB" transform="translate(167,50)"/>
<path d="M0 0 C2.16874252 0.50603992 3.99967627 0.99983813 6 2 C6 2.66 6 3.32 6 4 C4.02 4 2.04 4 0 4 C0 2.68 0 1.36 0 0 Z " fill="#12A4F5" transform="translate(48,142)"/>
<path d="M0 0 C2 3 2 3 2 5 C2.99 5.33 3.98 5.66 5 6 C4.01 6.495 4.01 6.495 3 7 C0.64018187 6.06421005 -1.69631264 5.06652192 -4 4 C-3.67 3.34 -3.34 2.68 -3 2 C-2.01 2 -1.02 2 0 2 C0 1.34 0 0.68 0 0 Z " fill="#2B9EED" transform="translate(41,93)"/>
<path d="M0 0 C4.21878192 -0.19622241 7.17010894 0.19769832 11 2 C11 2.66 11 3.32 11 4 C3.375 2.25 3.375 2.25 0 0 Z " fill="#3E9FDE" transform="translate(37,146)"/>
<path d="M0 0 C0.99 0 1.98 0 3 0 C3.33 0.99 3.66 1.98 4 3 C1.525 4.485 1.525 4.485 -1 6 C-1.042721 4.33388095 -1.04063832 2.66617115 -1 1 C-0.67 0.67 -0.34 0.34 0 0 Z " fill="#31A1E3" transform="translate(119,132)"/>
<path d="M0 0 C0.99 0 1.98 0 3 0 C2.39816251 2.02045442 1.72693904 4.02111039 1 6 C0.01 6.495 0.01 6.495 -1 7 C-0.67 4.69 -0.34 2.38 0 0 Z " fill="#E4F8FE" transform="translate(152,90)"/>
<path d="M0 0 C0.66 0.33 1.32 0.66 2 1 C-1.465 3.97 -1.465 3.97 -5 7 C-5.66 6.67 -6.32 6.34 -7 6 C-6.01 5.67 -5.02 5.34 -4 5 C-4 4.01 -4 3.02 -4 2 C-2.125 0.9375 -2.125 0.9375 0 0 Z " fill="#2B96D2" transform="translate(160,42)"/>
<path d="M0 0 C2.31 0.33 4.62 0.66 7 1 C6.67 1.66 6.34 2.32 6 3 C4.02 3 2.04 3 0 3 C0 2.01 0 1.02 0 0 Z " fill="#FEFAEE" transform="translate(48,153)"/>
<path d="M0 0 C3.36591866 1.44253657 5.51047079 3.33264727 8 6 C2.33846154 4.52307692 2.33846154 4.52307692 0.625 1.875 C0.41875 1.25625 0.2125 0.6375 0 0 Z " fill="#2E9BCD" transform="translate(48,117)"/>
<path d="M0 0 C2.375 -0.1875 2.375 -0.1875 5 0 C5.66 0.99 6.32 1.98 7 3 C6.34 3.66 5.68 4.32 5 5 C3.35 3.35 1.7 1.7 0 0 Z " fill="#259EEF" transform="translate(47,115)"/>
</svg>
