<?xml version="1.0" encoding="UTF-8"?>
<svg version="1.1" xmlns="http://www.w3.org/2000/svg" width="301" height="167">
<path d="M0 0 C99.33 0 198.66 0 301 0 C301 55.11 301 110.22 301 167 C201.67 167 102.34 167 0 167 C0 111.89 0 56.78 0 0 Z " fill="#FCFDFD" transform="translate(0,0)"/>
<path d="M0 0 C2.63816884 1.8395395 4.71360377 3.71360377 7 6 C6.09066991 7.27609323 5.17217147 8.54565553 4.25 9.8125 C3.48429687 10.87404297 3.48429687 10.87404297 2.703125 11.95703125 C0.97517642 14.02977691 -0.78526476 15.47375854 -3 17 C-3.47050781 16.65066406 -3.94101563 16.30132812 -4.42578125 15.94140625 C-5.04839844 15.48636719 -5.67101562 15.03132813 -6.3125 14.5625 C-6.92738281 14.11003906 -7.54226562 13.65757813 -8.17578125 13.19140625 C-13.41506735 9.7696027 -20.00914726 10.5079976 -26 11 C-30.6166835 12.1945265 -33.35037884 15.03890191 -35.9375 18.9375 C-39.13730056 25.35829186 -39.30032395 32.62869821 -37.265625 39.46875 C-34.92787434 44.60413668 -31.69513704 47.45992169 -26.8125 50.25 C-19.90159422 52.09290821 -13.96450462 51.58608707 -7.69140625 48.16796875 C-5.90861872 46.93689838 -4.47887753 45.57837388 -3 44 C1.29238623 45.65091778 3.8793915 48.73754566 7 52 C5.45871959 56.16145711 2.55006635 58.542858 -1 61 C-1.56976563 61.39832031 -2.13953125 61.79664062 -2.7265625 62.20703125 C-10.4195605 66.54392056 -20.46743886 66.24651507 -29 65 C-38.53935093 61.89695825 -45.64253941 56.36872292 -51 48 C-51.5775 47.113125 -52.155 46.22625 -52.75 45.3125 C-55.50918217 38.00066725 -55.14061545 29.78967555 -54.9375 22.05859375 C-54.90744663 19.79883869 -54.90744663 19.79883869 -56 17 C-55.01 17.33 -54.02 17.66 -53 18 C-52.6596875 17.35933594 -52.319375 16.71867187 -51.96875 16.05859375 C-46.62149318 6.51601575 -39.75277313 -0.16486262 -29.203125 -3.58203125 C-19.35683896 -5.45003233 -8.99067068 -4.44149899 0 0 Z " fill="#045BA0" transform="translate(136,41)"/>
<path d="M0 0 C-1.65302544 3.58155513 -3.81552372 6.72328557 -6 10 C-6.69429379 11.3191582 -7.37530495 12.64649406 -8 14 C-8.66 13.401875 -9.32 12.80375 -10 12.1875 C-15.86032637 7.91434535 -20.7175504 6.50866237 -27.921875 7.48046875 C-33.6617208 8.9154302 -37.20374539 12.52151407 -40.625 17.2421875 C-43.47508882 22.95855882 -43.00034532 30.48803498 -41.2734375 36.55078125 C-38.91321908 41.64539906 -35.64680462 44.52955299 -30.75 47.25 C-23.14997888 49.32273303 -17.89484666 47.94223972 -11.06640625 44.19140625 C-10.04353516 43.60166016 -10.04353516 43.60166016 -9 43 C-8.34 42.67 -7.68 42.34 -7 42 C-6.66226563 42.61488281 -6.32453125 43.22976562 -5.9765625 43.86328125 C-5.53054687 44.67152344 -5.08453125 45.47976562 -4.625 46.3125 C-4.18414062 47.11300781 -3.74328125 47.91351563 -3.2890625 48.73828125 C-2.26486665 50.53527943 -1.14732862 52.27900708 0 54 C-1.39176632 54.96423026 -2.7886223 55.92111602 -4.1875 56.875 C-4.96480469 57.40867187 -5.74210937 57.94234375 -6.54296875 58.4921875 C-15.03523591 63.70365828 -25.72491112 63.17055967 -35.30859375 61.3828125 C-43.81223976 58.65682101 -50.39595696 53.16633651 -54.9375 45.5 C-59.63533219 35.99093967 -60.73328178 25.61126814 -57.5625 15.375 C-53.9316776 6.49680529 -46.72628038 -0.98731284 -38 -5 C-24.91419692 -9.65765873 -11.53148227 -7.26984752 0 0 Z " fill="#035AA0" transform="translate(87,44)"/>
<path d="M0 0 C3.22867351 2.27489371 5.79796789 4.20712729 7.6875 7.75 C8.0498971 11.11661655 8.06771113 14.38419655 7.6875 17.75 C6.6875 18.75 6.6875 18.75 4.125 18.8125 C3.320625 18.791875 2.51625 18.77125 1.6875 18.75 C1.6875 20.73 1.6875 22.71 1.6875 24.75 C1.3575 24.75 1.0275 24.75 0.6875 24.75 C0.6875 22.77 0.6875 20.79 0.6875 18.75 C-2.6125 18.75 -5.9125 18.75 -9.3125 18.75 C-9.3125 22.05 -9.3125 25.35 -9.3125 28.75 C-5.8475 29.245 -5.8475 29.245 -2.3125 29.75 C-1.3225 28.43 -0.3325 27.11 0.6875 25.75 C0.6875 28.06 0.6875 30.37 0.6875 32.75 C-1.2925 33.245 -1.2925 33.245 -3.3125 33.75 C-3.3125 32.76 -3.3125 31.77 -3.3125 30.75 C-5.2925 30.42 -7.2725 30.09 -9.3125 29.75 C-9.3125 32.39 -9.3125 35.03 -9.3125 37.75 C-7.8275 38.245 -7.8275 38.245 -6.3125 38.75 C-9.89274731 40.54012366 -13.54615444 40.28432804 -17.33984375 39.13671875 C-22.9433092 36.69528563 -26.22079163 32.95990303 -29.3125 27.75 C-31.22865465 22.00153605 -31.55174176 14.33930645 -29.55859375 8.56640625 C-27.66025786 5.58118 -25.46688299 4.16403375 -22.3125 2.75 C-21.9825 1.76 -21.6525 0.77 -21.3125 -0.25 C-13.81372983 -3.99938508 -7.35173526 -4.31010824 0 0 Z " fill="#8FACCB" transform="translate(74.3125,53.25)"/>
<path d="M0 0 C4.95 0 9.9 0 15 0 C15 22.11 15 44.22 15 67 C10.05 67 5.1 67 0 67 C0 44.89 0 22.78 0 0 Z " fill="#015AA0" transform="translate(6,38)"/>
<path d="M0 0 C1 3 1 3 -1 11 C6.26 11 13.52 11 21 11 C20.34 7.37 19.68 3.74 19 0 C19.66 0.33 20.32 0.66 21 1 C22.1577506 4.47325181 22.06866652 7.36067448 22 11 C23.65 11 25.3 11 27 11 C27 11.33 27 11.66 27 12 C25.35 12 23.7 12 22 12 C22 13.98 22 15.96 22 18 C21.67 18 21.34 18 21 18 C21 16.02 21 14.04 21 12 C17.7 12 14.4 12 11 12 C11 15.3 11 18.6 11 22 C13.31 22.33 15.62 22.66 18 23 C18.99 21.68 19.98 20.36 21 19 C21 21.31 21 23.62 21 26 C19.68 26.33 18.36 26.66 17 27 C17 26.01 17 25.02 17 24 C15.02 23.67 13.04 23.34 11 23 C11 25.64 11 28.28 11 31 C11.99 31.33 12.98 31.66 14 32 C10.41975269 33.79012366 6.76634556 33.53432804 2.97265625 32.38671875 C-2.6308092 29.94528563 -5.90829163 26.20990303 -9 21 C-10.1577506 17.52674819 -10.06866652 14.63932552 -10 11 C-7.36 11 -4.72 11 -2 11 C-1.93941406 10.37351562 -1.87882812 9.74703125 -1.81640625 9.1015625 C-1.73261719 8.28429687 -1.64882813 7.46703125 -1.5625 6.625 C-1.48128906 5.81289062 -1.40007813 5.00078125 -1.31640625 4.1640625 C-1 2 -1 2 0 0 Z " fill="#8FACCC" transform="translate(54,60)"/>
<path d="M0 0 C4.83963469 2.05349105 6.88201397 5.29424909 9 10 C9.6531105 13.06204704 9.8525636 15.85469019 10 19 C6.7 19 3.4 19 0 19 C0 16.03 0 13.06 0 10 C0.66 9.67 1.32 9.34 2 9 C1.34 8.67 0.68 8.34 0 8 C0 5.36 0 2.72 0 0 Z " fill="#FCFDFD" transform="translate(65,52)"/>
<path d="M0 0 C1.8125 1.125 1.8125 1.125 3 3 C3.39365568 6.14924548 3.52854531 8.11909116 1.875 10.875 C-0.88090884 12.52854531 -2.85075452 12.39365568 -6 12 C-7.875 10.875 -7.875 10.875 -9 9 C-9.4375 6 -9.4375 6 -9 3 C-6.30254095 0.00282328 -3.95012118 -0.60771095 0 0 Z " fill="#909192" transform="translate(255,47)"/>
<path d="M0 0 C2.31361802 3.47042703 2.51020728 4.91834173 2 9 C0.375 10.9375 0.375 10.9375 -2 12 C-5.125 11.875 -5.125 11.875 -8 11 C-10.15502531 7.76746204 -10.46856135 6.74849077 -10 3 C-7.66359177 -0.98563758 -4.22275562 -0.46066425 0 0 Z " fill="#8B8B8C" transform="translate(163,83)"/>
<path d="M0 0 C3.5625 0.3125 3.5625 0.3125 5.5 1.5 C6.97609492 4.01804428 7.05339348 5.43726676 6.5625 8.3125 C4.9375 10.6875 4.9375 10.6875 2.5625 12.3125 C-1.1360004 12.16455998 -2.79555573 11.95444427 -5.4375 9.3125 C-5.6875 5.8125 -5.6875 5.8125 -5.4375 2.3125 C-3.4375 0.3125 -3.4375 0.3125 0 0 Z " fill="#88898A" transform="translate(201.4375,82.6875)"/>
<path d="M0 0 C2.64 0 5.28 0 8 0 C10.48063781 9.41002278 10.48063781 9.41002278 9 14 C7.68 14.33 6.36 14.66 5 15 C1.10640794 10.10160999 0.2757735 6.2049038 0 0 Z " fill="#FAFBFC" transform="translate(44,72)"/>
<path d="M0 0 C3.875 1.75 3.875 1.75 5 4 C4.34938905 5.67299959 3.67966676 7.33859237 3 9 C2.62406934 10.9924325 2.28020455 12.9918674 2 15 C-0.64 15 -3.28 15 -6 15 C-6.45826062 9.2717423 -5.55825861 6.5001506 -2 2 C-1.34 1.34 -0.68 0.68 0 0 Z " fill="#FAFBFC" transform="translate(50,56)"/>
<path d="M0 0 C3.63 0 7.26 0 11 0 C11 3.3 11 6.6 11 10 C6.545 10.495 6.545 10.495 2 11 C0.48940272 6.9402698 0 4.45389333 0 0 Z " fill="#F8FAFB" transform="translate(53,72)"/>
<path d="M0 0 C4.455 0.99 4.455 0.99 9 2 C9 4.97 9 7.94 9 11 C5.37 11 1.74 11 -2 11 C-1.125 3.375 -1.125 3.375 0 0 Z " fill="#F9FBFC" transform="translate(55,60)"/>
<path d="M0 0 C6.625 -0.25 6.625 -0.25 10 2 C9.835 2.763125 9.67 3.52625 9.5 4.3125 C8.86892619 7.70452174 8.90181101 9.70543302 10 13 C6.66462511 11.88820837 5.36292656 10.52588702 3 8 C3 9.65 3 11.3 3 13 C2.01 13 1.02 13 0 13 C0 8.71 0 4.42 0 0 Z " fill="#AFB0B1" transform="translate(249,82)"/>
<path d="M0 0 C3.3 0 6.6 0 10 0 C9.25 8.625 9.25 8.625 7 12 C4.69 11.34 2.38 10.68 0 10 C0 6.7 0 3.4 0 0 Z " fill="#FDFDFD" transform="translate(65,72)"/>
<path d="M0 0 C3.96 0 7.92 0 12 0 C10 4 10 4 8 6 C9.32 6.33 10.64 6.66 12 7 C12 7.66 12 8.32 12 9 C8.04 9 4.08 9 0 9 C0 6.03 0 3.06 0 0 Z " fill="#9DB8D4" transform="translate(214,118)"/>
<path d="M0 0 C6.625 -0.25 6.625 -0.25 10 2 C9.67 3.65 9.34 5.3 9 7 C8.34 7 7.68 7 7 7 C7.99 8.65 8.98 10.3 10 12 C9.01 12 8.02 12 7 12 C6.34 11.01 5.68 10.02 5 9 C4.01 8.67 3.02 8.34 2 8 C2 9.32 2 10.64 2 12 C1.34 12 0.68 12 0 12 C0 8.04 0 4.08 0 0 Z " fill="#7E8082" transform="translate(194,47)"/>
<path d="M0 0 C2.21070341 1.65802755 3.55817681 2.69814192 5 5 C5.43788102 8.37425965 5.29562191 11.61677147 5 15 C3.02 15 1.04 15 -1 15 C-1.33692785 13.39658445 -1.66941093 11.79223445 -2 10.1875 C-2.185625 9.29417969 -2.37125 8.40085937 -2.5625 7.48046875 C-3 5 -3 5 -3 2 C-2.01 1.34 -1.02 0.68 0 0 Z " fill="#F7F8FB" transform="translate(77,56)"/>
<path d="M0 0 C3.83736322 0.95934081 4.59660228 1.23609263 7 4 C7.45375 3.34 7.9075 2.68 8.375 2 C8.91125 1.34 9.4475 0.68 10 0 C10.66 0 11.32 0 12 0 C12 3.96 12 7.92 12 12 C11.34 12 10.68 12 10 12 C9.67 9.69 9.34 7.38 9 5 C8.01 6.32 7.02 7.64 6 9 C5.34 8.01 4.68 7.02 4 6 C3.67 7.98 3.34 9.96 3 12 C2.01 12 1.02 12 0 12 C0 8.04 0 4.08 0 0 Z " fill="#9C9EA0" transform="translate(191,65)"/>
<path d="M0 0 C6.75 -0.125 6.75 -0.125 9 1 C9 4.66666667 9 8.33333333 9 12 C8.01 11.67 7.02 11.34 6 11 C5.67 10.34 5.34 9.68 5 9 C4.01 8.67 3.02 8.34 2 8 C2 9.32 2 10.64 2 12 C1.34 12 0.68 12 0 12 C0 8.04 0 4.08 0 0 Z " fill="#8A8B8B" transform="translate(229,65)"/>
<path d="M0 0 C0.66 0 1.32 0 2 0 C2 3.96 2 7.92 2 12 C-1.375 12.125 -1.375 12.125 -5 12 C-7 10 -7 10 -7.25 7.5 C-7 5 -7 5 -5 3 C-3.68 3 -2.36 3 -1 3 C-0.67 2.01 -0.34 1.02 0 0 Z " fill="#185DA1" transform="translate(84,115)"/>
<path d="M0 0 C1 3 1 3 -1 11 C6.26 11 13.52 11 21 11 C20.34 7.37 19.68 3.74 19 0 C19.66 0.33 20.32 0.66 21 1 C22.1577506 4.47325181 22.06866652 7.36067448 22 11 C23.65 11 25.3 11 27 11 C27 11.33 27 11.66 27 12 C25.35 12 23.7 12 22 12 C22 13.98 22 15.96 22 18 C21.67 18 21.34 18 21 18 C21 16.02 21 14.04 21 12 C13.74 12 6.48 12 -1 12 C-0.67 14.97 -0.34 17.94 0 21 C-2.29013653 17.5647952 -2.17842973 16.014669 -2 12 C-4.64 12 -7.28 12 -10 12 C-10 11.67 -10 11.34 -10 11 C-7.36 11 -4.72 11 -2 11 C-1.93941406 10.37351562 -1.87882812 9.74703125 -1.81640625 9.1015625 C-1.73261719 8.28429687 -1.64882813 7.46703125 -1.5625 6.625 C-1.48128906 5.81289062 -1.40007813 5.00078125 -1.31640625 4.1640625 C-1 2 -1 2 0 0 Z " fill="#7697BB" transform="translate(54,60)"/>
<path d="M0 0 C1.134375 0.020625 2.26875 0.04125 3.4375 0.0625 C3.49145478 1.68713842 3.53027195 3.31228541 3.5625 4.9375 C3.58570313 5.84242187 3.60890625 6.74734375 3.6328125 7.6796875 C3.4375 10.0625 3.4375 10.0625 1.4375 12.0625 C-1.1875 12.1875 -1.1875 12.1875 -3.5625 12.0625 C-3.8925 11.4025 -4.2225 10.7425 -4.5625 10.0625 C-3.1084375 9.876875 -3.1084375 9.876875 -1.625 9.6875 C-0.614375 9.48125 0.39625 9.275 1.4375 9.0625 C1.7675 8.4025 2.0975 7.7425 2.4375 7.0625 C1.48875 7.26875 0.54 7.475 -0.4375 7.6875 C-1.46875 7.81125 -2.5 7.935 -3.5625 8.0625 C-4.2225 7.4025 -4.8825 6.7425 -5.5625 6.0625 C-4.83351201 0.08479846 -4.83351201 0.08479846 0 0 Z " fill="#1F60A4" transform="translate(188.5625,117.9375)"/>
<path d="M0 0 C3.3 0 6.6 0 10 0 C10 2.97 10 5.94 10 9 C9.01 9 8.02 9 7 9 C6.67 7.68 6.34 6.36 6 5 C5.67 6.32 5.34 7.64 5 9 C3.35 9 1.7 9 0 9 C-0.33 8.34 -0.66 7.68 -1 7 C0.32 6.67 1.64 6.34 3 6 C1.68 5.34 0.36 4.68 -1 4 C-0.67 2.68 -0.34 1.36 0 0 Z " fill="#3069A8" transform="translate(115,118)"/>
<path d="M0 0 C0.33 1.32 0.66 2.64 1 4 C2.423125 3.690625 2.423125 3.690625 3.875 3.375 C4.90625 3.25125 5.9375 3.1275 7 3 C9 5 9 5 9.25 7.5 C9 10 9 10 7 12 C3.375 12.125 3.375 12.125 0 12 C0 8.04 0 4.08 0 0 Z " fill="#2362A4" transform="translate(94,115)"/>
<path d="M0 0 C2.9375 0.375 2.9375 0.375 6 1 C6.33 1.66 6.66 2.32 7 3 C8.65 3 10.3 3 12 3 C12 3.99 12 4.98 12 6 C8.55166676 8.05257931 6.68338409 9.0632763 2.625 8.6875 C1.75875 8.460625 0.8925 8.23375 0 8 C0 5.36 0 2.72 0 0 Z " fill="#D5E0EB" transform="translate(65,83)"/>
<path d="M0 0 C1.32 0.33 2.64 0.66 4 1 C4.33 1.66 4.66 2.32 5 3 C5.99 2.67 6.98 2.34 8 2 C8.33 1.34 8.66 0.68 9 0 C9.99 0 10.98 0 12 0 C12 3.63 12 7.26 12 11 C11.34 11 10.68 11 10 11 C9.67 9.02 9.34 7.04 9 5 C8.01 6.485 8.01 6.485 7 8 C6.34 8 5.68 8 5 8 C4.67 6.68 4.34 5.36 4 4 C3.34 4 2.68 4 2 4 C2 6.31 2 8.62 2 11 C1.34 11 0.68 11 0 11 C0 7.37 0 3.74 0 0 Z " fill="#929394" transform="translate(224,83)"/>
<path d="M0 0 C2.97 0 5.94 0 9 0 C9 0.66 9 1.32 9 2 C7.02 2 5.04 2 3 2 C3 2.99 3 3.98 3 5 C4.98 5 6.96 5 9 5 C9 5.66 9 6.32 9 7 C7.02 7 5.04 7 3 7 C3 7.99 3 8.98 3 10 C4.98 10 6.96 10 9 10 C9 10.66 9 11.32 9 12 C6.03 12 3.06 12 0 12 C0 8.04 0 4.08 0 0 Z " fill="#9B9C9E" transform="translate(217,65)"/>
<path d="M0 0 C0.99 0 1.98 0 3 0 C4.6875 2 4.6875 2 6 4 C6.6496875 3.01 6.6496875 3.01 7.3125 2 C7.869375 1.34 8.42625 0.68 9 0 C9.99 0 10.98 0 12 0 C12 3.63 12 7.26 12 11 C11.34 11 10.68 11 10 11 C9.67 8.69 9.34 6.38 9 4 C8.34 5.32 7.68 6.64 7 8 C6.01 7.67 5.02 7.34 4 7 C3.67 6.34 3.34 5.68 3 5 C2.67 6.98 2.34 8.96 2 11 C1.34 11 0.68 11 0 11 C0 7.37 0 3.74 0 0 Z " fill="#909294" transform="translate(210,83)"/>
<path d="M0 0 C2.5 0.25 2.5 0.25 4.5 2.25 C4.75 4.75 4.75 4.75 4.5 7.25 C2.5 9.25 2.5 9.25 0 9.5 C-2.5 9.25 -2.5 9.25 -4.5 7.25 C-4.75 4.75 -4.75 4.75 -4.5 2.25 C-2.5 0.25 -2.5 0.25 0 0 Z " fill="#2263A4" transform="translate(59.5,117.75)"/>
<path d="M0 0 C3.76687864 1.88343932 4.79421646 2.69132469 7 6 C7.33 4.02 7.66 2.04 8 0 C8.66 0 9.32 0 10 0 C10 3.96 10 7.92 10 12 C6.31197956 10.77065985 5.27643027 9.06140622 3 6 C2.67 7.98 2.34 9.96 2 12 C1.34 12 0.68 12 0 12 C0 8.04 0 4.08 0 0 Z " fill="#88898B" transform="translate(206,47)"/>
<path d="M0 0 C1 1 1 1 1.1875 3.4375 C1 6 1 6 -1 8 C-3.5 8.3125 -3.5 8.3125 -6 8 C-8 5 -8 5 -7.75 2.375 C-7.5025 1.59125 -7.255 0.8075 -7 0 C-4.31633121 -1.3418344 -2.84719317 -0.73004953 0 0 Z " fill="#1D5FA3" transform="translate(174,119)"/>
<path d="M0 0 C1 1 1 1 1.1875 3.4375 C1 6 1 6 -1 8 C-3.5 8.25 -3.5 8.25 -6 8 C-6.66 7.34 -7.32 6.68 -8 6 C-7.75 2.9375 -7.75 2.9375 -7 0 C-4.31633121 -1.3418344 -2.84719317 -0.73004953 0 0 Z " fill="#1E5FA3" transform="translate(255,119)"/>
<path d="M0 0 C3.99996286 1.33332095 4.83782337 3.4957827 7 7 C7.33 4.69 7.66 2.38 8 0 C8.66 0 9.32 0 10 0 C10 3.96 10 7.92 10 12 C6.23312136 10.11656068 5.20578354 9.30867531 3 6 C2.67 7.98 2.34 9.96 2 12 C1.34 12 0.68 12 0 12 C0 8.04 0 4.08 0 0 Z " fill="#898B8C" transform="translate(159,47)"/>
<path d="M0 0 C0.99 0 1.98 0 3 0 C3.69937202 1.4317616 4.38412718 2.87067032 5.0625 4.3125 C5.44535156 5.11300781 5.82820312 5.91351563 6.22265625 6.73828125 C7 9 7 9 6 12 C5.67 11.01 5.34 10.02 5 9 C2.02934491 9.34227572 2.02934491 9.34227572 -1 10 C-1.33 10.66 -1.66 11.32 -2 12 C-2.66 12 -3.32 12 -4 12 C-3.33501617 7.61110675 -1.81242323 4.0188515 0 0 Z " fill="#8F9091" transform="translate(182,65)"/>
<path d="M0 0 C0 2.64 0 5.28 0 8 C-3.7016431 8.94693195 -5.39112465 9.30443767 -8.875 7.5625 C-9.57625 7.046875 -10.2775 6.53125 -11 6 C-9.68 4.68 -8.36 3.36 -7 2 C-6.67 2.33 -6.34 2.66 -6 3 C-6 2.34 -6 1.68 -6 1 C-3 0 -3 0 0 0 Z " fill="#FDFDFE" transform="translate(63,83)"/>
<path d="M0 0 C0.99 0 1.98 0 3 0 C3.67354499 1.43429001 4.33859701 2.87257057 5 4.3125 C5.556875 5.51326172 5.556875 5.51326172 6.125 6.73828125 C7 9 7 9 7 12 C6.34 12 5.68 12 5 12 C4.67 11.34 4.34 10.68 4 10 C0.97065509 9.34227572 0.97065509 9.34227572 -2 9 C-2 9.99 -2 10.98 -2 12 C-2.66 12 -3.32 12 -4 12 C-3.33501617 7.61110675 -1.81242323 4.0188515 0 0 Z " fill="#8A8A8A" transform="translate(277,47)"/>
<path d="M0 0 C2.97 0 5.94 0 9 0 C9 0.66 9 1.32 9 2 C6.69 2 4.38 2 2 2 C2 2.99 2 3.98 2 5 C3.98 5 5.96 5 8 5 C8 5.66 8 6.32 8 7 C6.02 7 4.04 7 2 7 C2 7.99 2 8.98 2 10 C4.31 10 6.62 10 9 10 C9 10.66 9 11.32 9 12 C6.03 12 3.06 12 0 12 C0 8.04 0 4.08 0 0 Z " fill="#858B8F" transform="translate(183,47)"/>
<path d="M0 0 C3 1 3 1 4.16796875 2.99609375 C4.50441406 3.80175781 4.84085938 4.60742188 5.1875 5.4375 C5.53167969 6.24058594 5.87585938 7.04367188 6.23046875 7.87109375 C7 10 7 10 7 12 C6.34 12 5.68 12 5 12 C4.67 11.34 4.34 10.68 4 10 C0.97065509 9.34227572 0.97065509 9.34227572 -2 9 C-2.33 9.99 -2.66 10.98 -3 12 C-3.66 11.67 -4.32 11.34 -5 11 C-3.35 7.37 -1.7 3.74 0 0 Z " fill="#878787" transform="translate(223,47)"/>
<path d="M0 0 C0.66 0 1.32 0 2 0 C2.66 0.99 3.32 1.98 4 3 C4.33 2.01 4.66 1.02 5 0 C5.99 0 6.98 0 8 0 C8.33 0.99 8.66 1.98 9 3 C9.66 2.01 10.32 1.02 11 0 C11.66 0 12.32 0 13 0 C12.34 2.97 11.68 5.94 11 9 C10.01 9 9.02 9 8 9 C7.67 7.68 7.34 6.36 7 5 C6.34 6.32 5.68 7.64 5 9 C4.01 8.67 3.02 8.34 2 8 C1.26953125 6.15234375 1.26953125 6.15234375 0.8125 3.9375 C0.65394531 3.20402344 0.49539062 2.47054687 0.33203125 1.71484375 C0.22246094 1.14894531 0.11289062 0.58304687 0 0 Z " fill="#2162A4" transform="translate(41,118)"/>
<path d="M0 0 C2.31 0 4.62 0 7 0 C7.66 1.32 8.32 2.64 9 4 C8.01 4.495 8.01 4.495 7 5 C7 4.01 7 3.02 7 2 C5.35 2 3.7 2 2 2 C2 2.99 2 3.98 2 5 C3.32 5.33 4.64 5.66 6 6 C4.68 6 3.36 6 2 6 C2 7.32 2 8.64 2 10 C5.93075644 9.42547254 5.93075644 9.42547254 9 7 C9 8.32 9 9.64 9 11 C6.04335481 12.4783226 3.25770263 12.06032783 0 12 C0 8.04 0 4.08 0 0 Z " fill="#8B8D8E" transform="translate(206,65)"/>
<path d="M0 0 C0.66 0 1.32 0 2 0 C2 1.65 2 3.3 2 5 C3.98 5 5.96 5 8 5 C8 3.35 8 1.7 8 0 C8.66 0 9.32 0 10 0 C10 3.96 10 7.92 10 12 C9.34 12 8.68 12 8 12 C8 10.35 8 8.7 8 7 C6.02 7 4.04 7 2 7 C2 8.65 2 10.3 2 12 C1.34 12 0.68 12 0 12 C0 8.04 0 4.08 0 0 Z " fill="#878B8E" transform="translate(166,65)"/>
<path d="M0 0 C4.55555556 0.55555556 4.55555556 0.55555556 6 2 C6.1875 4.4375 6.1875 4.4375 6 7 C5.34 7.66 4.68 8.32 4 9 C1.375 8.625 1.375 8.625 -1 8 C-1.625 5.125 -1.625 5.125 -2 2 C-1.34 1.34 -0.68 0.68 0 0 Z " fill="#F3F3F3" transform="translate(157,84)"/>
<path d="M0 0 C4.0084034 2.0042017 5.41409657 3.49055963 8 7 C8.33 4.69 8.66 2.38 9 0 C9.33 0 9.66 0 10 0 C10 3.96 10 7.92 10 12 C9.34 12 8.68 12 8 12 C6.7109375 10.46875 6.7109375 10.46875 5.375 8.5 C4.92898438 7.8503125 4.48296875 7.200625 4.0234375 6.53125 C3.51683594 5.77328125 3.51683594 5.77328125 3 5 C2.67 7.31 2.34 9.62 2 12 C1.34 12 0.68 12 0 12 C0 8.04 0 4.08 0 0 Z " fill="#8C8E8E" transform="translate(260,47)"/>
<path d="M0 0 C2.93453261 0.36681658 3.86437246 0.86437246 6 3 C5.625 5.625 5.625 5.625 5 8 C2.625 8.625 2.625 8.625 0 9 C-2 7 -2 7 -2.25 4.5 C-2 2 -2 2 0 0 Z " fill="#F6F7F7" transform="translate(200,84)"/>
<path d="M0 0 C1.2065625 0.0309375 1.2065625 0.0309375 2.4375 0.0625 C3.0975 1.7125 3.7575 3.3625 4.4375 5.0625 C2.4575 5.3925 0.4775 5.7225 -1.5625 6.0625 C0.0875 6.3925 1.7375 6.7225 3.4375 7.0625 C3.1075 7.7225 2.7775 8.3825 2.4375 9.0625 C0.0625 9.25 0.0625 9.25 -2.5625 9.0625 C-4.5625 6.0625 -4.5625 6.0625 -4.25 3.4375 C-3.27807854 0.07995314 -3.27807854 0.07995314 0 0 Z " fill="#2863A5" transform="translate(140.5625,117.9375)"/>
<path d="M0 0 C2.375 -0.125 2.375 -0.125 5 0 C7 2 7 2 7.125 5.625 C7.08375 6.73875 7.0425 7.8525 7 9 C4.69 9 2.38 9 0 9 C-0.33 7.35 -0.66 5.7 -1 4 C0.98 4 2.96 4 5 4 C5 3.34 5 2.68 5 2 C3.35 2 1.7 2 0 2 C0 1.34 0 0.68 0 0 Z " fill="#497EB4" transform="translate(228,118)"/>
<path d="M0 0 C2.625 0.375 2.625 0.375 5 1 C5.625 3.375 5.625 3.375 6 6 C5.34 6.66 4.68 7.32 4 8 C1.375 7.625 1.375 7.625 -1 7 C-1.625 4.625 -1.625 4.625 -2 2 C-1.34 1.34 -0.68 0.68 0 0 Z " fill="#FBFCFC" transform="translate(250,49)"/>
<path d="M0 0 C2.625 0.375 2.625 0.375 5 1 C5.33 2.32 5.66 3.64 6 5 C4.02 5 2.04 5 0 5 C0 5.66 0 6.32 0 7 C1.98 7 3.96 7 6 7 C5.67 7.66 5.34 8.32 5 9 C2.625 9.125 2.625 9.125 0 9 C-2 7 -2 7 -2.25 4.5 C-2 2 -2 2 0 0 Z " fill="#3F75B0" transform="translate(30,118)"/>
<path d="M0 0 C1.670625 0.061875 1.670625 0.061875 3.375 0.125 C3.375 1.115 3.375 2.105 3.375 3.125 C2.570625 2.939375 1.76625 2.75375 0.9375 2.5625 C-0.3309375 2.3459375 -0.3309375 2.3459375 -1.625 2.125 C-2.92133621 3.19145115 -2.92133621 3.19145115 -2.6875 5.6875 C-2.666875 6.491875 -2.64625 7.29625 -2.625 8.125 C-2.026875 8.269375 -1.42875 8.41375 -0.8125 8.5625 C0.93650404 9.0122439 2.66177023 9.55392341 4.375 10.125 C1.375 12.125 1.375 12.125 -1.125 11.9375 C-3.87887823 11.04248958 -5.09386237 10.59183286 -6.625 8.125 C-6.29727128 2.77209762 -5.78764478 0.19957396 0 0 Z " fill="#969797" transform="translate(189.625,82.875)"/>
<path d="M0 0 C0.66 0 1.32 0 2 0 C2.33 0.99 2.66 1.98 3 3 C4.65 3.33 6.3 3.66 8 4 C8 6.64 8 9.28 8 12 C7.34 12 6.68 12 6 12 C6 9.69 6 7.38 6 5 C4.68 5 3.36 5 2 5 C2 7.31 2 9.62 2 12 C1.34 12 0.68 12 0 12 C0 8.04 0 4.08 0 0 Z " fill="#004E9A" transform="translate(18,115)"/>
<path d="M0 0 C0 0.99 0 1.98 0 3 C-1.98 3 -3.96 3 -6 3 C-6 4.65 -6 6.3 -6 8 C-2.52852158 8.74957157 -2.52852158 8.74957157 1 9 C1 9.66 1 10.32 1 11 C-1.75 11.75 -1.75 11.75 -5 12 C-7.375 10.375 -7.375 10.375 -9 8 C-9.49631357 5.09302053 -9.43323149 3.69798407 -7.875 1.1875 C-5.22464043 -0.49106106 -3.06753576 -0.20450238 0 0 Z " fill="#8A8B8B" transform="translate(162,65)"/>
<path d="M0 0 C2.64 0 5.28 0 8 0 C6.84826645 2.46800047 5.95216435 4.04783565 4 6 C5.32 6.33 6.64 6.66 8 7 C8 7.66 8 8.32 8 9 C5.36 9 2.72 9 0 9 C1.20381448 6.50638429 2.45428722 4.31856917 4 2 C2.68 2 1.36 2 0 2 C0 1.34 0 0.68 0 0 Z " fill="#2C6BA7" transform="translate(218,118)"/>
<path d="M0 0 C1.670625 0.061875 1.670625 0.061875 3.375 0.125 C3.705 0.785 4.035 1.445 4.375 2.125 C3.405625 2.104375 2.43625 2.08375 1.4375 2.0625 C-1.49965895 1.76881501 -1.49965895 1.76881501 -2.625 3.125 C-2.66563832 4.79117115 -2.667721 6.45888095 -2.625 8.125 C-1.84125 8.269375 -1.0575 8.41375 -0.25 8.5625 C2.375 9.125 2.375 9.125 4.375 10.125 C3.715 10.785 3.055 11.445 2.375 12.125 C-0.625 11.9375 -0.625 11.9375 -3.625 11.125 C-5.92663882 7.67254176 -5.96990322 6.17761287 -5.625 2.125 C-3.625 0.125 -3.625 0.125 0 0 Z " fill="#8C8C8C" transform="translate(266.625,82.875)"/>
<path d="M0 0 C2.33294775 -0.04241723 4.66702567 -0.04092937 7 0 C8 1 8 1 8.09765625 2.84765625 C8.04882812 5.92382812 8.04882812 5.92382812 8 9 C7.34 9 6.68 9 6 9 C6 6.69 6 4.38 6 2 C4.68 2 3.36 2 2 2 C2 4.31 2 6.62 2 9 C1.34 9 0.68 9 0 9 C0 6.03 0 3.06 0 0 Z " fill="#115DA0" transform="translate(258,118)"/>
<path d="M0 0 C2.33294775 -0.04241723 4.66702567 -0.04092937 7 0 C8 1 8 1 8.09765625 2.84765625 C8.04882812 5.92382812 8.04882812 5.92382812 8 9 C7.34 9 6.68 9 6 9 C6 6.69 6 4.38 6 2 C5.01 2.33 4.02 2.66 3 3 C2.67 4.98 2.34 6.96 2 9 C1.34 9 0.68 9 0 9 C0 6.03 0 3.06 0 0 Z " fill="#2D69A8" transform="translate(204,118)"/>
<path d="M0 0 C2.33294775 -0.04241723 4.66702567 -0.04092937 7 0 C8 1 8 1 8.09765625 2.84765625 C8.04882812 5.92382812 8.04882812 5.92382812 8 9 C7.34 9 6.68 9 6 9 C6 6.69 6 4.38 6 2 C5.01 2.33 4.02 2.66 3 3 C2.67 4.98 2.34 6.96 2 9 C1.34 9 0.68 9 0 9 C0 6.03 0 3.06 0 0 Z " fill="#2B69A9" transform="translate(126,118)"/>
<path d="M0 0 C0.66 0 1.32 0 2 0 C2 2.31 2 4.62 2 7 C3.32 7 4.64 7 6 7 C6 4.69 6 2.38 6 0 C6.66 0 7.32 0 8 0 C8 2.97 8 5.94 8 9 C5.69 9 3.38 9 1 9 C-0.4783226 6.04335481 -0.06032783 3.25770263 0 0 Z " fill="#1B5C9F" transform="translate(104,118)"/>
<path d="M0 0 C1.65 0 3.3 0 5 0 C6.9904118 3.48322065 7 5.99709697 7 10 C6.01 9.67 5.02 9.34 4 9 C3.67 8.34 3.34 7.68 3 7 C2.01 6.34 1.02 5.68 0 5 C-0.1875 2.375 -0.1875 2.375 0 0 Z " fill="#919293" transform="translate(231,67)"/>
<path d="M0 0 C1.65 0 3.3 0 5 0 C6.125 2.3125 6.125 2.3125 7 5 C6.01 6.485 6.01 6.485 5 8 C2.375 8.1875 2.375 8.1875 0 8 C0 5.36 0 2.72 0 0 Z " fill="#DCDEDF" transform="translate(208,67)"/>
<path d="M0 0 C0 2.64 0 5.28 0 8 C-2.31 7.67 -4.62 7.34 -7 7 C-4.60526316 0 -4.60526316 0 0 0 Z " fill="#F5F7FA" transform="translate(64,52)"/>
<path d="M0 0 C3.73487777 0.4979837 5.81237635 0.87491756 9 3 C8.67 3.99 8.34 4.98 8 6 C5.4375 7.1875 5.4375 7.1875 3 8 C1.92474806 5.34771188 0.90543849 2.71631546 0 0 Z " fill="#C3D3E4" transform="translate(68,52)"/>
<path d="M0 0 C3.3 0 6.6 0 10 0 C10 0.66 10 1.32 10 2 C8.68 2 7.36 2 6 2 C6 5.3 6 8.6 6 12 C5.34 12 4.68 12 4 12 C4 8.7 4 5.4 4 2 C2.68 2 1.36 2 0 2 C0 1.34 0 0.68 0 0 Z " fill="#8A8D8F" transform="translate(230,47)"/>
<path d="M0 0 C3.3 0 6.6 0 10 0 C10 0.66 10 1.32 10 2 C8.68 2 7.36 2 6 2 C6 5.3 6 8.6 6 12 C5.34 12 4.68 12 4 12 C4 8.7 4 5.4 4 2 C2.68 2 1.36 2 0 2 C0 1.34 0 0.68 0 0 Z " fill="#85888A" transform="translate(171,47)"/>
<path d="M0 0 C2.64 0 5.28 0 8 0 C8 0.33 8 0.66 8 1 C6.02 1 4.04 1 2 1 C2 2.32 2 3.64 2 5 C3.65 5 5.3 5 7 5 C7 5.33 7 5.66 7 6 C5.35 6 3.7 6 2 6 C2 7.32 2 8.64 2 10 C3.98 10 5.96 10 8 10 C8 10.33 8 10.66 8 11 C5.36 11 2.72 11 0 11 C0 7.37 0 3.74 0 0 Z " fill="#828282" transform="translate(274,83)"/>
<path d="M0 0 C1.65 0 3.3 0 5 0 C5 0.66 5 1.32 5 2 C4.01 2.33 3.02 2.66 2 3 C3.32 3.66 4.64 4.32 6 5 C5.67 6.32 5.34 7.64 5 9 C3.35 9 1.7 9 0 9 C-0.33 8.34 -0.66 7.68 -1 7 C0.32 6.67 1.64 6.34 3 6 C1.68 5.34 0.36 4.68 -1 4 C-0.67 2.68 -0.34 1.36 0 0 Z " fill="#3770AC" transform="translate(147,118)"/>
<path d="M0 0 C1.65 0 3.3 0 5 0 C5 2.97 5 5.94 5 9 C4.01 9 3.02 9 2 9 C1.67 7.02 1.34 5.04 1 3 C-0.32 3.33 -1.64 3.66 -3 4 C-3.33 3.34 -3.66 2.68 -4 2 C-2.68 2 -1.36 2 0 2 C0 1.34 0 0.68 0 0 Z " fill="#90ADCF" transform="translate(120,118)"/>
<path d="M0 0 C2.97 0 5.94 0 9 0 C9 0.66 9 1.32 9 2 C8.01 2 7.02 2 6 2 C6 5.3 6 8.6 6 12 C5.34 12 4.68 12 4 12 C4 8.7 4 5.4 4 2 C2.68 2 1.36 2 0 2 C0 1.34 0 0.68 0 0 Z " fill="#2767A7" transform="translate(7,115)"/>
<path d="M0 0 C0.66 0 1.32 0 2 0 C2 3.3 2 6.6 2 10 C4.31 10 6.62 10 9 10 C9 10.66 9 11.32 9 12 C6.03 12 3.06 12 0 12 C0 8.04 0 4.08 0 0 Z " fill="#8E9294" transform="translate(286,47)"/>
<path d="M0 0 C2.97 0.495 2.97 0.495 6 1 C5.4409112 4.24271506 4.5867822 5.93057424 2 8 C1.34 8 0.68 8 0 8 C0 5.36 0 2.72 0 0 Z " fill="#FDFDFE" transform="translate(65,83)"/>
<path d="M0 0 C1.66611905 -0.042721 3.33382885 -0.04063832 5 0 C6 1 6 1 6.09765625 2.84765625 C6.06510417 4.8984375 6.03255208 6.94921875 6 9 C5.34 8.34 4.68 7.68 4 7 C4.33 6.34 4.66 5.68 5 5 C3.02 5.99 3.02 5.99 1 7 C1.66 7.66 2.32 8.32 3 9 C1.68 8.67 0.36 8.34 -1 8 C-1 6.68 -1 5.36 -1 4 C0.65 3.67 2.3 3.34 4 3 C2.68 2.67 1.36 2.34 0 2 C0 1.34 0 0.68 0 0 Z " fill="#12589F" transform="translate(196,118)"/>
<path d="M0 0 C0.33 0.66 0.66 1.32 1 2 C2.65 2 4.3 2 6 2 C6 2.66 6 3.32 6 4 C4.02 4 2.04 4 0 4 C-0.33 5.32 -0.66 6.64 -1 8 C-2.65 7.67 -4.3 7.34 -6 7 C-4.02 4.69 -2.04 2.38 0 0 Z " fill="#E3EAF1" transform="translate(227,118)"/>
<path d="M0 0 C1.65 0 3.3 0 5 0 C5 0.66 5 1.32 5 2 C4.01 2.33 3.02 2.66 2 3 C2.99 3.33 3.98 3.66 5 4 C4.67 5.65 4.34 7.3 4 9 C2.35 8.67 0.7 8.34 -1 8 C0.32 7.34 1.64 6.68 3 6 C1.68 5.34 0.36 4.68 -1 4 C-0.67 2.68 -0.34 1.36 0 0 Z " fill="#2563A5" transform="translate(155,118)"/>
<path d="M0 0 C0.66 0 1.32 0 2 0 C2 0.66 2 1.32 2 2 C2.66 2 3.32 2 4 2 C4 2.66 4 3.32 4 4 C3.34 4 2.68 4 2 4 C2 5.65 2 7.3 2 9 C2.66 9 3.32 9 4 9 C4 9.66 4 10.32 4 11 C2.68 11 1.36 11 0 11 C-0.19491452 9.54263913 -0.38069358 8.08405407 -0.5625 6.625 C-0.66691406 5.81289062 -0.77132812 5.00078125 -0.87890625 4.1640625 C-1 2 -1 2 0 0 Z " fill="#2767A6" transform="translate(238,116)"/>
<path d="M0 0 C0.66 0 1.32 0 2 0 C2 3.96 2 7.92 2 12 C1.34 12 0.68 12 0 12 C-0.33 9.69 -0.66 7.38 -1 5 C-1.99 5.495 -1.99 5.495 -3 6 C-1.125 1.125 -1.125 1.125 0 0 Z " fill="#818181" transform="translate(201,65)"/>
<path d="M0 0 C0.99 0 1.98 0 3 0 C3.73080266 1.97746603 4.39421747 3.98072489 5 6 C4.67 6.66 4.34 7.32 4 8 C2.35 8 0.7 8 -1 8 C-0.67 5.36 -0.34 2.72 0 0 Z " fill="#AEAEAF" transform="translate(277,47)"/>
<path d="M0 0 C4.875 3.625 4.875 3.625 6 7 C2.625 6.6875 2.625 6.6875 -1 6 C-1.66 5.01 -2.32 4.02 -3 3 C-2.01 2.01 -1.02 1.02 0 0 Z " fill="#E7EDF4" transform="translate(55,85)"/>
<path d="M0 0 C0.99 0.33 1.98 0.66 3 1 C2.34 1.66 1.68 2.32 1 3 C1.01666329 5.50324332 1.01666329 5.50324332 2 8 C3.9568288 9.82337753 3.9568288 9.82337753 6 11 C3.25913944 11.22223194 1.56036279 11.34781139 -0.8125 9.875 C-2.52849028 7.16554166 -2.333728 5.13704316 -2 2 C-1.34 1.34 -0.68 0.68 0 0 Z " fill="#8A8B8B" transform="translate(248,48)"/>
<path d="M0 0 C0.99 0 1.98 0 3 0 C3.66 1.32 4.32 2.64 5 4 C4.01 4.495 4.01 4.495 3 5 C2.34227572 8.02934491 2.34227572 8.02934491 2 11 C1.34 11 0.68 11 0 11 C0 7.37 0 3.74 0 0 Z " fill="#828383" transform="translate(210,83)"/>
<path d="M0 0 C-1.65 1.98 -3.3 3.96 -5 6 C-6.32 5.34 -7.64 4.68 -9 4 C-8 1 -8 1 -6.1875 -0.25 C-3.66056586 -1.11637742 -2.47778006 -0.88492145 0 0 Z " fill="#EFF3F7" transform="translate(61,52)"/>
<path d="M0 0 C1.32 0.66 2.64 1.32 4 2 C4.37010337 5.3309303 4.27461204 6.62731223 2.25 9.375 C0 11 0 11 -2.25 10.75 C-3.11625 10.37875 -3.11625 10.37875 -4 10 C-3.01 10 -2.02 10 -1 10 C-1 9.34 -1 8.68 -1 8 C-0.34 8 0.32 8 1 8 C1.08226668 4.95613276 0.97608217 2.92824652 0 0 Z " fill="#929394" transform="translate(204,84)"/>
<path d="M0 0 C0.99 0 1.98 0 3 0 C3 3.63 3 7.26 3 11 C2.34 11 1.68 11 1 11 C1 8.69 1 6.38 1 4 C0.34 4 -0.32 4 -1 4 C-0.67 2.68 -0.34 1.36 0 0 Z " fill="#888888" transform="translate(233,83)"/>
<path d="M0 0 C0 0.33 0 0.66 0 1 C-1.175625 0.9690625 -1.175625 0.9690625 -2.375 0.9375 C-4.98114961 0.81315937 -4.98114961 0.81315937 -7 2 C-9.01927511 1.39421747 -11.02253397 0.73080266 -13 0 C-13 -0.33 -13 -0.66 -13 -1 C-7.96488101 -2.0070238 -4.76052962 -1.97387813 0 0 Z " fill="#EBEFF5" transform="translate(151,124)"/>
<path d="M0 0 C1.65 0.33 3.3 0.66 5 1 C4.67 2.32 4.34 3.64 4 5 C2.35 4.67 0.7 4.34 -1 4 C-0.67 2.68 -0.34 1.36 0 0 Z " fill="#EAEFF5" transform="translate(250,120)"/>
<path d="M0 0 C1.65 0.33 3.3 0.66 5 1 C4.67 2.32 4.34 3.64 4 5 C2.35 4.67 0.7 4.34 -1 4 C-0.67 2.68 -0.34 1.36 0 0 Z " fill="#E9EFF5" transform="translate(169,120)"/>
<path d="M0 0 C2 0 4 0 6 0 C6 0.66 6 1.32 6 2 C5.01 2.66 4.02 3.32 3 4 C2.27034634 6.56282742 2.27034634 6.56282742 2 9 C1.34 9 0.68 9 0 9 C0 6.03 0 3.06 0 0 Z " fill="#356FAC" transform="translate(177,118)"/>
<path d="M0 0 C1.65 0 3.3 0 5 0 C5 0.66 5 1.32 5 2 C4.01 2.495 4.01 2.495 3 3 C2.34227572 6.02934491 2.34227572 6.02934491 2 9 C1.34 9 0.68 9 0 9 C0 6.03 0 3.06 0 0 Z " fill="#0F579F" transform="translate(66,118)"/>
<path d="M0 0 C1.65 0 3.3 0 5 0 C5.33 0.66 5.66 1.32 6 2 C5.67 2.66 5.34 3.32 5 4 C3.02 4 1.04 4 -1 4 C-0.67 2.68 -0.34 1.36 0 0 Z " fill="#7098C2" transform="translate(138,118)"/>
<path d="M0 0 C2.475 0.495 2.475 0.495 5 1 C5 3.64 5 6.28 5 9 C4.34 9 3.68 9 3 9 C3 6.69 3 4.38 3 2 C2.01 2 1.02 2 0 2 C0 1.34 0 0.68 0 0 Z " fill="#1059A0" transform="translate(21,118)"/>
<path d="M0 0 C2.475 0.495 2.475 0.495 5 1 C4.67 2.32 4.34 3.64 4 5 C2.68 5 1.36 5 0 5 C0 3.35 0 1.7 0 0 Z " fill="#F1F5F8" transform="translate(96,120)"/>
<path d="M0 0 C2.475 0.495 2.475 0.495 5 1 C4.67 2.32 4.34 3.64 4 5 C2.68 5 1.36 5 0 5 C0 3.35 0 1.7 0 0 Z " fill="#F3F6F9" transform="translate(79,120)"/>
<path d="M0 0 C2.475 0.495 2.475 0.495 5 1 C4.67 2.32 4.34 3.64 4 5 C2.68 5 1.36 5 0 5 C0 3.35 0 1.7 0 0 Z " fill="#F6F8FA" transform="translate(57,120)"/>
<path d="M0 0 C0.99 0.33 1.98 0.66 3 1 C4.1875 3.5625 4.1875 3.5625 5 6 C3.02 6 1.04 6 -1 6 C-0.67 4.02 -0.34 2.04 0 0 Z " fill="#B8B9BA" transform="translate(183,66)"/>
<path d="M0 0 C1.65 0.33 3.3 0.66 5 1 C4.34 2.32 3.68 3.64 3 5 C1.68 4.34 0.36 3.68 -1 3 C-0.67 2.01 -0.34 1.02 0 0 Z " fill="#E4EBF2" transform="translate(186,120)"/>
<path d="M0 0 C2.7839183 1.39195915 2.97898997 3.15575779 4 6 C2.02 6 0.04 6 -2 6 C-1.34 4.02 -0.68 2.04 0 0 Z " fill="#B8B9BA" transform="translate(222,49)"/>
<path d="M0 0 C1.65 0 3.3 0 5 0 C5 1.32 5 2.64 5 4 C3.35 4 1.7 4 0 4 C0 2.68 0 1.36 0 0 Z " fill="#F4F6F8" transform="translate(196,49)"/>
<path d="M0 0 C0.66 0 1.32 0 2 0 C2.433125 1.2065625 2.433125 1.2065625 2.875 2.4375 C3.73262568 5.1326468 3.73262568 5.1326468 6 6 C5.67 6.99 5.34 7.98 5 9 C4.01 8.67 3.02 8.34 2 8 C1.26953125 6.15234375 1.26953125 6.15234375 0.8125 3.9375 C0.65394531 3.20402344 0.49539062 2.47054687 0.33203125 1.71484375 C0.22246094 1.14894531 0.11289062 0.58304687 0 0 Z " fill="#1D60A3" transform="translate(41,118)"/>
<path d="M0 0 C6.625 -0.25 6.625 -0.25 10 2 C9.67 3.65 9.34 5.3 9 7 C7 5 7 5 6 2 C3.03 1.505 3.03 1.505 0 1 C0 0.67 0 0.34 0 0 Z " fill="#929597" transform="translate(194,47)"/>
<path d="M0 0 C1.98 0 3.96 0 6 0 C6.144375 0.61875 6.28875 1.2375 6.4375 1.875 C6.93152225 4.03258322 6.93152225 4.03258322 8 6 C7.01 6 6.02 6 5 6 C4.34 5.01 3.68 4.02 3 3 C2.01 2.67 1.02 2.34 0 2 C0 1.34 0 0.68 0 0 Z " fill="#878787" transform="translate(196,53)"/>
<path d="M0 0 C1.65 0 3.3 0 5 0 C4.67 1.32 4.34 2.64 4 4 C2.68 4 1.36 4 0 4 C0 2.68 0 1.36 0 0 Z " fill="#F9F9F9" transform="translate(231,67)"/>
<path d="M0 0 C0.66 0.33 1.32 0.66 2 1 C1.67 2.32 1.34 3.64 1 5 C-0.65 5 -2.3 5 -4 5 C-4.33 4.34 -4.66 3.68 -5 3 C-4.360625 2.690625 -3.72125 2.38125 -3.0625 2.0625 C-1.06389179 1.1654837 -1.06389179 1.1654837 0 0 Z " fill="#3C73AE" transform="translate(119,122)"/>
<path d="M0 0 C0.99 0 1.98 0 3 0 C3.33 1.65 3.66 3.3 4 5 C2.35 5 0.7 5 -1 5 C-0.67 3.35 -0.34 1.7 0 0 Z " fill="#3973AD" transform="translate(46,118)"/>
<path d="M0 0 C1.134375 0.020625 2.26875 0.04125 3.4375 0.0625 C3.4375 1.0525 3.4375 2.0425 3.4375 3.0625 C2.674375 2.85625 1.91125 2.65 1.125 2.4375 C-1.78135944 1.72858797 -1.78135944 1.72858797 -4.5625 4.0625 C-4.5625 -0.28271095 -4.43767807 0.077854 0 0 Z " fill="#8C8D8D" transform="translate(189.5625,82.9375)"/>
<path d="M0 0 C0.33 0 0.66 0 1 0 C1 3.96 1 7.92 1 12 C0.34 12 -0.32 12 -1 12 C-1.33 10.68 -1.66 9.36 -2 8 C-1.34 8 -0.68 8 0 8 C0 5.36 0 2.72 0 0 Z " fill="#838484" transform="translate(269,47)"/>
<path d="M0 0 C0.99 0.33 1.98 0.66 3 1 C4.1875 4.0625 4.1875 4.0625 5 7 C4.01 7.495 4.01 7.495 3 8 C2.87625 7.360625 2.7525 6.72125 2.625 6.0625 C2.315625 5.0415625 2.315625 5.0415625 2 4 C1.34 3.67 0.68 3.34 0 3 C0 2.01 0 1.02 0 0 Z " fill="#8F9090" transform="translate(223,47)"/>
</svg>
